<svg height="519.588" viewBox="0 0 551.215 519.588" width="551.215" xmlns="http://www.w3.org/2000/svg" xmlns:xlink="http://www.w3.org/1999/xlink"><clipPath id="a"><circle cx="84.218" cy="84.218" r="84.218" transform="matrix(.70710678 -.70710678 .70710678 .70710678 0 119.102)"/></clipPath><path d="m215.219 133.784-8.573-12.525a.586.586 0 0 0 -.906-.117c-5.336 5.411-11.127-1.724-13.929-6.039-3.473-5.345-4.839-14.742 3.209-16.693a.582.582 0 0 0 .345-.847l-7.146-12.877a.577.577 0 0 0 -.5-.286 13.568 13.568 0 0 0 -12.99 11.32c-1.283 7.6 3.084 15.877 6.179 22.6 5.879 12.776 19.466 26.723 34.1 16.251.6-.428.023-1.429-.582-1-6.825 4.882-16.156 4.047-22.5-1.266-6.128-5.128-9.41-12.839-12.382-20.057-3.1-7.522-7.713-20.791 2.71-25.038 3.732-1.52 4.944-.888 7.352 2.345a23.087 23.087 0 0 1 2.382 4.293c1.512 3.533 1.356 2.722-.762 4.816-7.061 6.982-2.627 15.225 3.179 21.952 2.232 2.588 4.757 4.463 8.337 3.621 2.4-.564 2.085-1.784 4.339-.313 2.811 1.834 5.237 7.65 7.143 10.436.415.614 1.415.04.995-.576z" fill="#3e2945" transform="translate(-9.913 -22.165)"/><path d="m212.736 210.409h-90.573a51.172 51.172 0 1 1 0-102.344h72.67a.641.641 0 0 1 0 1.281h-72.67a49.89 49.89 0 1 0 0 99.781h90.572a.641.641 0 1 1 0 1.281z" fill="#fcda70" transform="translate(-39.043 -15.505)"/><circle cx="84.218" cy="84.218" fill="#44acbe" r="84.218" transform="matrix(.70710678 -.70710678 .70710678 .70710678 313.011 126.734)"/><g clip-path="url(#a)" transform="translate(313.011 7.632)"><path d="m399.947 117.939c2.337 6.394 8.076 10.969 14.144 14.055s12.671 5.013 18.737 8.1c8.155 4.153 15.445 10.718 18.62 19.3s1.447 19.264-5.554 25.16c-5.049 4.252-12.035 5.551-18.624 5.158a42.837 42.837 0 0 1 -27.906-72.884" fill="#3e2945" transform="translate(-263.085 -20.67)"/><path d="m335.745 252.121 11.71-87.825a31.265 31.265 0 0 1 25.708-26.674 107.63 107.63 0 0 1 48.384 2.8 31.249 31.249 0 0 1 22.253 25.946l11.951 91.127s-62.689 21.493-120.006-5.374z" fill="#fcda70" transform="translate(-277.545 -15.253)"/><path d="m385.1 92.08a15.15 15.15 0 0 1 4.709.354c14.369 3.35 18.74 23.85 15.137 36.418-1.994 6.957-7.436 12.876-14.508 14.147-10.344 1.858-18.691-6.144-22.049-15.694a30.554 30.554 0 0 1 .427-22.043c2.977-6.823 9.069-12.586 16.284-13.182z" fill="#f4586f" transform="translate(-268.877 -27.65)"/><path d="m372.109 119.906a5.978 5.978 0 0 1 -5.954.723 6.5 6.5 0 0 1 -3.5-4.964 5.261 5.261 0 0 1 1.943-5 3.727 3.727 0 0 1 4.987.932z" fill="#f4586f" transform="translate(-269.987 -22.567)"/><path d="m394.3 119.906a5.98 5.98 0 0 0 5.955.723 6.5 6.5 0 0 0 3.5-4.964 5.263 5.263 0 0 0 -1.941-5 3.727 3.727 0 0 0 -4.987.932z" fill="#f4586f" transform="translate(-261.067 -22.567)"/><path d="m396.8 114.393 1.621 30.161a12.27 12.27 0 0 1 -10.756 12.935 12.27 12.27 0 0 1 -13.755-12.5l.623-27.872z" fill="#f4586f" transform="translate(-266.805 -21.357)"/><g fill="#3e2945"><path d="m374.2 128.716a18.914 18.914 0 0 0 11.05 3.9l-11.207 2.884z" transform="translate(-266.767 -17.326)"/><path d="m386.339 99.612s-3.084 12.467-19.776 15.981c0 0 .012-23.354 19.776-24.1s19.589 24.28 19.589 24.28-18.486-2.041-19.589-16.161z" transform="translate(-268.872 -27.807)"/><path d="m380.408 121.69c.124-.267.2-.267.256-.268a.281.281 0 0 0 .07-.017.241.241 0 0 1 .1-.019.236.236 0 0 1 .128.1.263.263 0 0 0 .085.081.1.1 0 0 0 .046.005.237.237 0 0 0 .068-.023c.036-.018.078-.054.1-.028a.485.485 0 0 0 .137-.009l.042-.009a.459.459 0 0 1 .249-.022l.018.006a.146.146 0 0 1 .083.056c.045.05.094.091.127.074.014-.008.024-.032.035-.053l.018-.04c.044-.082.109-.068.185-.053s.088-.069.07-.136l-.006-.019c0-.01.01-.01.01-.01h.006c0-.01.012-.013.028-.013h.055a.134.134 0 0 0 .063-.01.024.024 0 0 0 .017-.027.126.126 0 0 0 -.032-.053l-.02-.027c-.019-.026.01-.045-.015-.073-.042-.046-.018-.086.005-.132l.02-.053a.513.513 0 0 0 0-.167l-.009-.106a.859.859 0 0 1 .1-.211.513.513 0 0 0 .086-.146.242.242 0 0 0 -.019-.142 1.1 1.1 0 0 1 -.026-.5.1.1 0 0 0 -.006-.078.329.329 0 0 0 -.054-.047.276.276 0 0 1 -.081-.077.149.149 0 0 1 -.008-.1l.011-.147.008-.161v-.051a.235.235 0 0 0 -.013-.119.357.357 0 0 1 -.037-.215.409.409 0 0 1 .027-.078.3.3 0 0 0 .026-.085.346.346 0 0 0 -.041-.168.251.251 0 0 1 0-.283l.042-.046c.028-.027.054-.054.055-.077a.2.2 0 0 0 -.054-.086.4.4 0 0 1 -.064-.388l.047-.176.056-.21.031-.158.029-.144a.2.2 0 0 0 .005-.117l-.018-.046a.326.326 0 0 1 -.031-.095.323.323 0 0 1 .014-.119.2.2 0 0 0 0-.152.34.34 0 0 0 -.061-.07c-.04-.04-.083-.082-.086-.129a.251.251 0 0 1 .042-.109l.02-.033a.178.178 0 0 0 .012-.16l-.014-.026a.172.172 0 0 1 -.023-.063v-.133a.587.587 0 0 1 .05-.314.437.437 0 0 0 -.031-.391.523.523 0 0 1 -.049-.379.29.29 0 0 0 -.019-.245.311.311 0 0 1 -.028-.15.326.326 0 0 0 -.013-.11.461.461 0 0 0 -.063-.106.388.388 0 0 1 -.077-.15.3.3 0 0 1 .058-.182.225.225 0 0 0 .031-.077l.014-.046a.268.268 0 0 0 -.017-.213l-.045-.094a.781.781 0 0 1 -.077-.188.416.416 0 0 1 .126-.366c.041-.046 0-.133-.024-.2a.47.47 0 0 1 -.029-.079.717.717 0 0 1 .01-.359l.019-.095c.01-.07.028-.2.455-.255l.216-.019a3.514 3.514 0 0 1 .486.006c.34.032.4.126.431.17a.245.245 0 0 1 .037.185.77.77 0 0 1 -.077.21l-.059.133-.049.127a.072.072 0 0 0 0 .056l.009.051a.823.823 0 0 1 -.023.136.68.68 0 0 0 -.022.14.7.7 0 0 0 .07.268.156.156 0 0 0 .05.076l.033.024.045.032a.132.132 0 0 1 .028.169l-.014.049-.054.217-.005.021a.607.607 0 0 0 .079.459.316.316 0 0 1 .087.191.216.216 0 0 1 -.006.064l-.021.049c-.014.033-.029.065-.015.091a.174.174 0 0 1 -.032.172.353.353 0 0 1 -.056.072.332.332 0 0 0 -.047.059c-.038.065.005.131.051.2a.255.255 0 0 1 .067.211.345.345 0 0 1 -.051.09l-.036.056a.172.172 0 0 0 0 .145.274.274 0 0 0 .041.068.271.271 0 0 1 .051.094c.024.1.005.21.036.314a1.907 1.907 0 0 1 .086.8v.044a.465.465 0 0 1 -.027.141.2.2 0 0 1 -.07.061l-.031.021a.132.132 0 0 0 -.043.076.279.279 0 0 0 .084.176.369.369 0 0 1 .1.177.32.32 0 0 1 -.051.161l-.013.022a1.1 1.1 0 0 0 -.073.215l-.038.133c-.01.029.017.063.046.1l.038.05a.2.2 0 0 1 .032.192.386.386 0 0 0 -.035.129c-.005.053-.01.1-.109.205-.07.076-.12.129-.01.183a.228.228 0 0 1 .155.19.434.434 0 0 1 -.029.141.221.221 0 0 0 -.006.2 1.042 1.042 0 0 1 .223.752.247.247 0 0 1 -.074.108c-.035.036-.068.069-.059.1a.278.278 0 0 0 .064.094c.05.055.1.111.067.181a.393.393 0 0 1 -.1.109.59.59 0 0 0 -.069.067c-.051.069-.013.141.026.226a.378.378 0 0 1 .045.215.453.453 0 0 1 -.068.146.566.566 0 0 0 -.058.1.144.144 0 0 0 -.012.106.2.2 0 0 1 -.015.149 4.377 4.377 0 0 1 -.269.6l-.045.086a1.234 1.234 0 0 1 -.47.478l-.037.021a1.4 1.4 0 0 1 -.551.191.162.162 0 0 1 -.094-.038.068.068 0 0 0 -.052 0 .442.442 0 0 0 -.062.038.2.2 0 0 1 -.245.022l-.041-.017a.313.313 0 0 0 -.165 0l-.391.063-.105.026a.386.386 0 0 1 -.283 0 .393.393 0 0 1 -.088-.062.48.48 0 0 1 -.032-.044c-.018-.029-.032-.031-.041-.045-.038-.059-.1-.056-.16-.055h-.033a.462.462 0 0 0 -.092.01.339.339 0 0 1 -.147 0 .28.28 0 0 1 -.147-.109l-.015-.018c-.038-.045-.09-.106-.073-.31a2.485 2.485 0 0 1 .1-.507 2.115 2.115 0 0 1 .107-.297z" transform="translate(-265.037 -22.177)"/><path d="m378.949 121.459c.264-.12.291-.114.314-.108a.135.135 0 0 0 .04 0c.023 0 .045-.005.053 0s-.012.04-.036.07a.144.144 0 0 0 -.036.058l.01.012a.236.236 0 0 0 .041 0c.024 0 .068-.017.055 0a.1.1 0 0 0 .049.024l.019.005c.042.012.085.023.077.069v.012a.129.129 0 0 1 -.032.069c-.035.047-.063.091-.046.1a.117.117 0 0 0 .046-.008l.035-.009c.072-.013.06.038.041.1s.046.046.113.031l.019-.005c.009 0 .009.012.009.012v.006c.01 0 .013.015.009.032l-.019.053a.389.389 0 0 0 -.018.056c0 .012 0 .019.01.02a.136.136 0 0 0 .051-.015l.027-.01c.027-.01.019.017.049 0 .049-.022.049.006.05.033v.027a.078.078 0 0 0 .042.038l.028.018a.348.348 0 0 1 -.023.12.319.319 0 0 0 -.024.1c0 .019.018.017.041.015a.11.11 0 0 1 .12.082c0 .01.006.019.021.01l.042-.035a.376.376 0 0 1 .063-.051c.015-.008.02 0 .024.013l.024.037a.171.171 0 0 0 .029.037l.01.01c.008.009.015.018.033.01s.059-.023.068.005a.256.256 0 0 1 0 .036.109.109 0 0 0 .005.038c.01.014.033 0 .058-.006.04-.017.079-.037.065.047l-.009.045a.4.4 0 0 0 -.008.062.2.2 0 0 0 .045-.035c.086-.081.106-.04.122.005l.022.069.031.081.028.053.027.047c.006.015.013.029.028.022l.019-.01a.068.068 0 0 1 .035-.014c.013 0 .021.014.028.028s.019.037.041.017l.04-.049c.023-.033.047-.069.061-.065a.1.1 0 0 1 .014.053v.024c.006.036.019.045.04.032l.01-.01a.079.079 0 0 1 .023-.015l.035.014c.028.006.058.014.073.081.019.083.067.049.115.01s.086-.073.114-.015c.017.036.042.036.072 0a.035.035 0 0 1 .045-.014.031.031 0 0 0 .032-.006.265.265 0 0 0 .037-.055c.018-.032.035-.063.049-.068s.032.035.044.069a.076.076 0 0 0 .018.035l.012.018c.015.027.035.027.06 0l.027-.042a.259.259 0 0 1 .054-.069c.033-.02.064.027.1.141.013.041.038.01.055-.018a.278.278 0 0 1 .021-.03c.037-.031.064-.009.1.018l.028.02c.021.01.058.032.118.456.009.065.018.136.028.217.017.178.033.345.046.482.019.337-.017.4-.035.428s-.046.047-.078.036a.273.273 0 0 1 -.095-.078l-.059-.059-.055-.053c-.008-.01-.015 0-.023 0a.072.072 0 0 1 -.022.008.17.17 0 0 1 -.056-.029.147.147 0 0 0 -.058-.027c-.037-.006-.074.027-.113.059a.089.089 0 0 0 -.035.046l-.013.032-.017.044c-.028.064-.053.038-.073.017l-.021-.018a.814.814 0 0 1 -.086-.069l-.008-.006a.144.144 0 0 0 -.2.042c-.035.047-.067.069-.094.065a.046.046 0 0 1 -.026-.014l-.017-.024c-.012-.019-.022-.036-.035-.024-.028.022-.049-.012-.065-.051l-.018-.063-.014-.054c-.018-.042-.053-.01-.091.026s-.076.069-.1.037a.186.186 0 0 1 -.023-.063l-.014-.042a.037.037 0 0 0 -.055-.023.181.181 0 0 0 -.038.031.139.139 0 0 1 -.051.036c-.047.008-.083-.028-.133-.017a.344.344 0 0 1 -.34-.06l-.015-.012a.107.107 0 0 1 -.042-.053.2.2 0 0 1 .005-.076v-.032c0-.028 0-.046-.01-.054s-.056.012-.1.044-.081.058-.105.049-.029-.045-.036-.081v-.017a.417.417 0 0 0 -.044-.111l-.028-.063c-.006-.015-.029 0-.056.021l-.036.022c-.036.018-.073.027-.082-.018a.11.11 0 0 0 -.026-.06c-.015-.017-.03-.032-.013-.141.011-.078.022-.132-.054-.053s-.119.1-.146.085a.1.1 0 0 1 -.028-.06c-.01-.038-.018-.073-.059-.056-.2.081-.328.067-.372-.029a.181.181 0 0 1 .013-.09c.012-.037.023-.072.008-.074a.174.174 0 0 0 -.069.022c-.049.022-.1.044-.1 0a.393.393 0 0 1 .037-.106l.028-.069c.017-.056-.028-.045-.077-.033s-.076.015-.09-.005a.133.133 0 0 1 0-.07.187.187 0 0 0 0-.051c0-.017-.013-.021-.031-.013s-.037 0-.045-.013a.245.245 0 0 0 -.135-.108l-.028-.006a.214.214 0 0 1 -.15-.1l-.005-.009a.321.321 0 0 1 -.058-.168.147.147 0 0 1 .036-.058.014.014 0 0 0 0-.019h-.031c-.017 0-.033 0-.041-.009s0-.037.015-.065l.01-.022a.037.037 0 0 0 -.012-.054.35.35 0 0 0 -.122-.07l-.046-.01c-.044-.008-.091-.018-.081-.064a.169.169 0 0 1 .022-.053l.024-.032a.245.245 0 0 0 .022-.035c.035-.041.01-.053-.013-.064l-.013-.006a.161.161 0 0 0 -.044-.013c-.026-.005-.053-.012-.06-.028s0-.05.026-.09l.008-.013c.02-.033.047-.078.218-.182.137-.083.293-.168.452-.249z" transform="translate(-265.666 -19.4)"/><path d="m376.475 114.295a.688.688 0 1 0 .716-.659.689.689 0 0 0 -.716.659z" transform="translate(-266.083 -21.57)"/><path d="m376.367 114.341c-.1-.026-.105-.062-.108-.09l-.006-.033a.115.115 0 0 1 -.006-.05.129.129 0 0 1 .044-.07.224.224 0 0 0 .036-.044l.008-.023v-.037c0-.021-.005-.046.009-.056l.033-.079.012-.024a.343.343 0 0 1 .108-.149l.013-.009a.12.12 0 0 1 .064-.029.153.153 0 0 0 .087-.026.129.129 0 0 0 .023-.033l.013-.023a.208.208 0 0 1 .156-.07.335.335 0 0 0 .151-.072l.015-.009a.042.042 0 0 1 .024-.005h.012a.115.115 0 0 1 .051 0l.045.013.047.015a.061.061 0 0 0 .033 0 .194.194 0 0 0 .042-.017l.022-.008c.02-.006.041 0 .063 0a.127.127 0 0 1 .1.015l.032.015.094.031.054.019a.294.294 0 0 1 .07.079.267.267 0 0 0 .036.063.175.175 0 0 0 .053.033.352.352 0 0 1 .156.152.063.063 0 0 0 .023.028l.027.006a.093.093 0 0 1 .044.015.082.082 0 0 1 .024.037l.026.063.026.069.008.023a.127.127 0 0 0 .019.05.165.165 0 0 1 .033.095v.036l-.005.04a.251.251 0 0 0 .018.076.122.122 0 0 1 -.009.128l-.017.018a.1.1 0 0 0 -.026.031.12.12 0 0 0 .01.041.178.178 0 0 1 -.032.174l-.05.063-.064.069-.049.049-.049.04a.142.142 0 0 0 -.035.033l-.01.019-.022.036a.147.147 0 0 1 -.044.027.131.131 0 0 0 -.051.038.149.149 0 0 0 -.014.036.1.1 0 0 1 -.035.055.124.124 0 0 1 -.05.008h-.017a.1.1 0 0 0 -.067.022l-.008.009a.076.076 0 0 1 -.024.017l-.054.015a.237.237 0 0 1 -.137.005.291.291 0 0 0 -.168.012.218.218 0 0 1 -.165-.012.172.172 0 0 0 -.1-.028.16.16 0 0 1 -.065-.018.373.373 0 0 0 -.045-.019.237.237 0 0 0 -.053 0 .185.185 0 0 1 -.073-.017.125.125 0 0 1 -.052-.069.164.164 0 0 0 -.018-.029l-.013-.018a.17.17 0 0 0 -.068-.067l-.04-.023a.279.279 0 0 1 -.072-.056.182.182 0 0 1 -.037-.168c.007-.024-.02-.054-.037-.079l-.021-.032a.283.283 0 0 1 -.024-.159v-.042c0-.031.012-.092.163-.1h.078l.172.014c.12.014.141.029.151.037s.018.018.014.031a.172.172 0 0 1 -.023.042.106.106 0 0 0 -.014.029l-.01.031.005.01.006.008v.029a.058.058 0 0 0 .055.064.033.033 0 0 0 .023 0h.012l.015-.005c.026-.008.027 0 .028.017v.01l.018.042a.064.064 0 0 0 .087.022.061.061 0 0 1 .041-.015l.009.006.006.01c0 .008.008.014.013.01s.019.005.028.019l.012.022.009.019c.012.017.027 0 .041-.015s.024-.031.038-.023a.076.076 0 0 1 .019.017l.013.012a.023.023 0 0 0 .029 0l.009-.018.012-.022c.017-.013.038-.013.05-.031a.322.322 0 0 1 .1-.1l.006-.005a.107.107 0 0 1 .024-.013.066.066 0 0 1 .028.006h.01a.032.032 0 0 0 .023 0c.009-.008 0-.027-.008-.044s-.019-.033-.015-.044.017-.014.028-.021h.006a.1.1 0 0 0 .037-.033l.021-.024c0-.006 0-.014-.013-.022l-.013-.012c-.009-.012-.021-.024-.008-.038a.036.036 0 0 0 .012-.026c0-.01.005-.019.036-.047s.039-.038 0-.04-.058-.008-.063-.022a.051.051 0 0 1 0-.031c0-.017 0-.032-.014-.037-.087-.021-.127-.027-.145-.065a.081.081 0 0 1 0-.033c0-.014 0-.027 0-.028a.048.048 0 0 0 -.027.008c-.018.009-.035.021-.038 0a.2.2 0 0 1 0-.041v-.027c0-.023-.022-.014-.04 0s-.026.015-.036.012a.057.057 0 0 1 -.018-.023.1.1 0 0 0 -.014-.017.011.011 0 0 0 -.017 0 .015.015 0 0 1 -.021.005.125.125 0 0 0 -.081.013l-.01.008a.153.153 0 0 1 -.072.036h-.005a.313.313 0 0 1 -.076.017l-.023-.013h-.008l-.005.013-.005.017c-.005.005-.017 0-.029 0h-.01a.024.024 0 0 0 -.023.014.142.142 0 0 0 -.026.064v.021c0 .019 0 .037-.014.046l-.023.006h-.014-.015c-.019 0-.021.015-.019.028v.006l.006.02a.065.065 0 0 1 .007.029c0 .012-.013.02-.031.029h-.005c-.012.009-.029.022-.1.027a1.256 1.256 0 0 1 -.185 0 .688.688 0 0 1 -.108-.017z" transform="translate(-266.147 -21.636)"/><path d="m381.342 111.6c.086-.287.053-.323.026-.35a.174.174 0 0 1 -.024-.049.143.143 0 0 0 -.041-.064c-.031-.015-.074.006-.117.031a.192.192 0 0 1 -.085.033.043.043 0 0 1 -.028-.014.217.217 0 0 1 -.029-.051c-.013-.031-.024-.081-.051-.065a.381.381 0 0 1 -.094-.059l-.027-.022a.3.3 0 0 0 -.211-.094h-.021a.129.129 0 0 0 -.1.041c-.054.047-.1.088-.133.072a.152.152 0 0 1 -.035-.054l-.022-.04c-.055-.082-.138-.06-.218-.026s-.132-.032-.191-.108l-.017-.022a.03.03 0 0 0 -.032-.006h-.014a.078.078 0 0 0 -.065 0 .34.34 0 0 0 -.063.04.391.391 0 0 1 -.069.04.047.047 0 0 1 -.044 0 .188.188 0 0 1 -.045-.059l-.021-.031c-.022-.029-.053-.008-.073-.042-.035-.058-.081-.042-.126-.029l-.046.012a.327.327 0 0 1 -.122-.019l-.07-.017a.4.4 0 0 0 -.138.1.375.375 0 0 1 -.094.086c-.026.013-.049 0-.081-.022a.331.331 0 0 0 -.288-.031c-.017.005-.033.01-.046-.006a.382.382 0 0 1 -.024-.055.238.238 0 0 0 -.042-.083.053.053 0 0 0 -.056-.005l-.087.013a.463.463 0 0 1 -.094.009h-.031a.089.089 0 0 1 -.069-.009.131.131 0 0 0 -.126-.031.255.255 0 0 0 -.045.031.176.176 0 0 1 -.05.031c-.031.008-.063-.013-.1-.036-.054-.036-.111-.076-.165.015l-.024.046c-.014.031-.028.06-.041.063s-.028-.017-.053-.05a.153.153 0 0 0 -.229-.04l-.1.063-.114.077-.085.047-.078.044a.066.066 0 0 1 -.065.017l-.028-.015a.161.161 0 0 0 -.058-.022.12.12 0 0 0 -.065.029c-.028.019-.054.04-.086.015a.28.28 0 0 1 -.049-.053c-.031-.037-.061-.076-.088-.073a.137.137 0 0 0 -.055.056l-.014.026a.066.066 0 0 1 -.088.032l-.017-.012a.082.082 0 0 0 -.04-.015l-.072.021a.214.214 0 0 0 -.164.1c-.055.091-.136.059-.224.028s-.161-.051-.22.021a.107.107 0 0 1 -.141.024.11.11 0 0 0 -.09 0 .119.119 0 0 1 -.064.01.322.322 0 0 1 -.078-.04.2.2 0 0 0 -.106-.045c-.04.006-.064.054-.081.1a.142.142 0 0 1 -.031.045l-.021.024a.1.1 0 0 1 -.122.029l-.065-.022a.347.347 0 0 0 -.131-.029c-.074 0-.126.076-.147.208-.009.051-.07.033-.114.026a.181.181 0 0 0 -.054-.008.25.25 0 0 0 -.182.105l-.042.044c-.031.027-.092.079.074.491l.088.206.22.451c.167.309.233.346.265.364a.068.068 0 0 0 .094-.006.364.364 0 0 0 .056-.12l.033-.085.036-.077c0-.012.015-.009.026-.008h.036a.239.239 0 0 0 .052-.05.18.18 0 0 1 .054-.05.2.2 0 0 1 .145.013.1.1 0 0 1 .051.032l.023.028.029.037c.049.055.068.026.085 0l.017-.023.081-.091.006-.009a.164.164 0 0 1 .232 0c.046.045.083.064.112.056a.051.051 0 0 0 .027-.017l.017-.028c.012-.019.02-.04.037-.029.032.021.052-.015.07-.058l.018-.069.014-.058c.021-.049.064-.013.108.024s.083.072.114.04a.233.233 0 0 0 .029-.064l.019-.045a.048.048 0 0 1 .068-.023.2.2 0 0 1 .04.032.133.133 0 0 0 .054.04c.054.013.1-.018.155 0a.49.49 0 0 0 .39.005l.02-.008a.122.122 0 0 0 .063-.04.23.23 0 0 0 .022-.078l.006-.032a.078.078 0 0 1 .031-.051c.027-.012.06.028.094.072s.064.085.095.086.049-.031.072-.063l.01-.014a.389.389 0 0 1 .1-.088l.064-.049c.013-.013.031.013.049.041l.027.036c.028.031.061.062.095.026a.122.122 0 0 1 .062-.041c.026-.008.047-.014.1-.12.037-.076.064-.129.091-.018s.054.151.092.154a.123.123 0 0 0 .069-.033c.035-.024.068-.047.1-.008.137.194.245.261.354.226.018-.006.037-.041.058-.076s.04-.069.054-.059a.162.162 0 0 1 .04.067c.022.051.044.1.078.069a.405.405 0 0 0 .06-.1l.038-.068c.036-.049.063-.005.09.042s.042.073.072.07.041-.024.063-.045a.22.22 0 0 1 .045-.037c.017-.008.027 0 .035.018s.026.032.043.029a.321.321 0 0 1 .192.064l.023.022a.286.286 0 0 0 .188.085h.013a.4.4 0 0 0 .2-.013c.012 0 .024-.028.044-.058a.017.017 0 0 1 .021-.006.082.082 0 0 1 .018.028c.008.017.017.032.028.036s.04-.015.064-.04l.021-.018a.046.046 0 0 1 .064 0 .454.454 0 0 1 .126.105l.028.045c.024.042.049.086.1.064a.234.234 0 0 0 .054-.035l.027-.031c.018-.02.023-.018.032-.028.037-.042.058-.018.077.005l.01.013a.184.184 0 0 1 .026.045c.013.027.026.054.046.06s.059-.005.1-.037l.014-.01c.035-.023.082-.056.177-.242.076-.149.151-.316.218-.488z" transform="translate(-266.767 -22.423)"/><path d="m386.778 114.374a.688.688 0 1 0 .716-.659.688.688 0 0 0 -.716.659z" transform="translate(-263.183 -21.548)"/><path d="m386.67 114.42c-.1-.026-.105-.061-.108-.088l-.008-.035a.133.133 0 0 1 -.005-.05.131.131 0 0 1 .042-.07.233.233 0 0 0 .037-.044l.008-.023v-.037c0-.02-.005-.046.01-.056l.033-.079.01-.024a.345.345 0 0 1 .109-.149l.013-.009a.115.115 0 0 1 .064-.028.167.167 0 0 0 .087-.027.117.117 0 0 0 .022-.032l.014-.023a.2.2 0 0 1 .156-.072.315.315 0 0 0 .151-.072l.015-.009a.04.04 0 0 1 .024-.005h.012a.115.115 0 0 1 .051 0l.045.013.047.017a.073.073 0 0 0 .033 0 .277.277 0 0 0 .042-.015l.021-.009c.022-.006.042.005.064 0a.135.135 0 0 1 .1.015l.033.015.094.031.054.021a.289.289 0 0 1 .069.079.356.356 0 0 0 .036.062.207.207 0 0 0 .054.033.355.355 0 0 1 .156.154.065.065 0 0 0 .022.027l.028.006a.147.147 0 0 1 .044.015.074.074 0 0 1 .023.038l.027.062.024.069.008.023a.162.162 0 0 0 .021.051.172.172 0 0 1 .033.094v.037l-.006.038a.287.287 0 0 0 .019.076.125.125 0 0 1 -.009.128l-.018.018a.093.093 0 0 0 -.024.031.115.115 0 0 0 .01.041.181.181 0 0 1 -.033.174l-.049.064-.065.069-.049.047-.047.04a.112.112 0 0 0 -.035.035l-.01.018-.022.036a.138.138 0 0 1 -.044.027.135.135 0 0 0 -.052.04.179.179 0 0 0 -.013.035.093.093 0 0 1 -.036.055.122.122 0 0 1 -.049.009h-.017a.1.1 0 0 0 -.067.023l-.009.009a.056.056 0 0 1 -.023.015l-.054.015a.231.231 0 0 1 -.138.005.278.278 0 0 0 -.167.013.218.218 0 0 1 -.165-.013.182.182 0 0 0 -.105-.027.144.144 0 0 1 -.064-.019c-.015-.005-.029-.014-.045-.018a.241.241 0 0 0 -.054-.005.174.174 0 0 1 -.073-.017.13.13 0 0 1 -.051-.068.106.106 0 0 0 -.019-.031l-.012-.018a.166.166 0 0 0 -.069-.067l-.038-.023a.259.259 0 0 1 -.072-.056.18.18 0 0 1 -.037-.167c.006-.024-.022-.055-.038-.081l-.019-.031a.288.288 0 0 1 -.024-.16v-.042c0-.031.01-.091.163-.1h.077l.173.013c.12.015.141.029.151.037a.027.027 0 0 1 .014.032.2.2 0 0 1 -.023.041.151.151 0 0 0 -.014.029l-.012.031.005.01.006.009v.029a.131.131 0 0 0 .006.031.082.082 0 0 0 .05.032.032.032 0 0 0 .023 0h.012l.015-.006c.024-.008.026 0 .027.017v.01l.018.042a.061.061 0 0 0 .086.022.056.056 0 0 1 .042-.014l.009.006.005.01c0 .008.009.013.014.009s.019.006.028.019l.01.022.01.019c.012.017.027 0 .041-.015s.024-.031.038-.023a.078.078 0 0 1 .019.018l.013.01a.023.023 0 0 0 .029 0l.009-.017.012-.022c.015-.014.037-.013.05-.032a.309.309 0 0 1 .1-.1l.006-.005a.061.061 0 0 1 .024-.012.08.08 0 0 1 .027.005h.012a.041.041 0 0 0 .023 0c.008-.009 0-.028-.008-.045s-.019-.033-.015-.044.015-.014.028-.021h.006a.094.094 0 0 0 .037-.033l.02-.024c0-.005-.005-.014-.014-.022l-.012-.012c-.009-.012-.022-.024-.009-.037a.041.041 0 0 0 .013-.027c0-.01.005-.018.036-.046s.037-.038 0-.041-.056-.008-.061-.022a.063.063 0 0 1 0-.031c0-.017 0-.032-.015-.037-.086-.019-.126-.027-.144-.064 0-.006 0-.021 0-.035s0-.027 0-.028a.046.046 0 0 0 -.027.008c-.018.009-.036.021-.038 0a.2.2 0 0 1 0-.041v-.028c0-.023-.023-.014-.04 0s-.026.015-.036.012-.013-.013-.019-.022a.036.036 0 0 0 -.013-.017c-.006-.005-.012 0-.017 0a.015.015 0 0 1 -.02.005.124.124 0 0 0 -.081.013l-.01.008a.161.161 0 0 1 -.072.037h-.005a.313.313 0 0 1 -.077.015l-.022-.012h-.009v.012l-.006.018c-.005 0-.015 0-.028 0h-.01c-.012 0-.018.005-.024.013a.158.158 0 0 0 -.026.064v.022c0 .018.005.036-.013.045l-.023.006h-.014-.015c-.02 0-.02.015-.019.028v.008l.005.019a.052.052 0 0 1 .006.029c0 .012-.013.02-.03.029h-.005a.17.17 0 0 1 -.1.027 1.084 1.084 0 0 1 -.183 0 .569.569 0 0 1 -.112-.01z" transform="translate(-263.248 -21.613)"/><path d="m391.606 111.682c.085-.287.051-.322.026-.35a.173.173 0 0 1 -.026-.049.131.131 0 0 0 -.04-.064c-.031-.017-.074.006-.117.031a.2.2 0 0 1 -.085.033.046.046 0 0 1 -.028-.014.217.217 0 0 1 -.029-.051c-.014-.031-.026-.081-.051-.065a.38.38 0 0 1 -.094-.059l-.028-.022a.293.293 0 0 0 -.21-.094h-.021a.132.132 0 0 0 -.1.041c-.052.047-.1.088-.132.072a.135.135 0 0 1 -.035-.054l-.022-.04c-.055-.082-.138-.06-.218-.026s-.132-.032-.191-.108l-.018-.022a.028.028 0 0 0 -.031-.006h-.014a.078.078 0 0 0 -.065 0 .5.5 0 0 0 -.064.038.3.3 0 0 1 -.068.041.047.047 0 0 1 -.044 0 .186.186 0 0 1 -.045-.059l-.021-.031c-.022-.029-.054-.008-.074-.042-.033-.058-.079-.042-.124-.029l-.046.012a.339.339 0 0 1 -.123-.019l-.07-.017a.383.383 0 0 0 -.137.1.374.374 0 0 1 -.094.086c-.026.013-.049 0-.081-.022a.332.332 0 0 0 -.288-.031c-.018.005-.033.01-.046-.006a.286.286 0 0 1 -.024-.055.261.261 0 0 0 -.042-.083.053.053 0 0 0 -.058-.005l-.086.013a.473.473 0 0 1 -.095.009h-.03a.088.088 0 0 1 -.069-.009.128.128 0 0 0 -.126-.031.313.313 0 0 0 -.046.031.173.173 0 0 1 -.049.031.135.135 0 0 1 -.1-.036c-.054-.036-.11-.076-.164.015l-.024.046c-.015.031-.028.06-.042.063s-.027-.017-.052-.05a.153.153 0 0 0 -.229-.04l-.1.063-.114.077-.086.047-.077.044a.066.066 0 0 1 -.065.017l-.028-.015a.17.17 0 0 0 -.058-.022.12.12 0 0 0 -.065.029c-.028.019-.055.04-.086.015a.336.336 0 0 1 -.05-.053c-.029-.037-.06-.076-.088-.073a.135.135 0 0 0 -.054.056l-.015.026a.064.064 0 0 1 -.087.032l-.018-.012a.077.077 0 0 0 -.04-.015l-.07.021a.214.214 0 0 0 -.164.1c-.056.091-.137.059-.224.028s-.161-.051-.22.021a.105.105 0 0 1 -.141.023.118.118 0 0 0 -.091 0 .115.115 0 0 1 -.063.01.282.282 0 0 1 -.078-.04.2.2 0 0 0 -.106-.045c-.04.006-.064.054-.081.1a.126.126 0 0 1 -.032.045l-.02.024c-.026.037-.064.045-.12.029l-.067-.022a.336.336 0 0 0 -.129-.029c-.074 0-.126.074-.147.208-.009.051-.07.033-.114.026a.186.186 0 0 0 -.054-.008.245.245 0 0 0 -.182.105l-.042.044c-.032.027-.092.079.073.491l.09.206.22.45c.167.31.232.347.264.365a.07.07 0 0 0 .095-.006.364.364 0 0 0 .056-.12l.033-.085.035-.076c.005-.014.017-.01.027-.009h.026a.21.21 0 0 0 .051-.05.138.138 0 0 1 .2-.037.1.1 0 0 1 .051.032l.022.028.031.037c.049.055.068.024.085 0l.017-.023.079-.091.008-.009a.164.164 0 0 1 .232 0c.045.045.082.064.112.056a.055.055 0 0 0 .027-.017l.017-.027c.01-.02.021-.041.036-.029.033.019.052-.017.07-.059l.018-.069.015-.058c.02-.049.063-.013.106.024s.085.072.114.04a.2.2 0 0 0 .031-.064l.019-.045a.046.046 0 0 1 .067-.023.171.171 0 0 1 .041.032.125.125 0 0 0 .054.04c.054.013.1-.018.155 0a.49.49 0 0 0 .39.005l.02-.008a.132.132 0 0 0 .063-.04.235.235 0 0 0 .021-.078l.006-.032c.009-.028.019-.046.032-.051s.06.028.094.072.064.085.094.085.05-.029.073-.063l.01-.013a.42.42 0 0 1 .1-.09l.063-.047c.014-.013.032.013.05.041l.027.036c.028.031.062.062.095.026a.123.123 0 0 1 .062-.041c.026-.008.047-.014.1-.12.036-.076.064-.129.091-.018s.054.151.092.154a.123.123 0 0 0 .07-.033c.035-.024.068-.047.1-.008.137.192.243.261.354.226.018-.006.037-.04.058-.076s.038-.069.054-.059a.161.161 0 0 1 .04.067c.022.051.044.1.078.069a.4.4 0 0 0 .06-.1l.038-.068c.036-.049.063-.005.09.042s.042.073.072.07.04-.024.062-.045a.225.225 0 0 1 .046-.037c.017-.008.027 0 .035.018s.024.032.044.029a.315.315 0 0 1 .191.064l.024.022a.286.286 0 0 0 .188.085h.013a.416.416 0 0 0 .2-.013c.012-.005.024-.028.042-.058a.019.019 0 0 1 .022-.006.107.107 0 0 1 .018.028c.008.017.017.032.028.036s.04-.015.064-.04l.019-.018a.048.048 0 0 1 .064 0 .467.467 0 0 1 .127.106l.028.044c.024.044.049.087.1.065a.2.2 0 0 0 .052-.035l.028-.031c.018-.021.023-.018.032-.028.037-.042.058-.018.076.005l.012.013a.165.165 0 0 1 .026.045c.013.027.026.054.046.06s.059-.005.1-.037l.013-.009c.035-.024.083-.058.177-.243.076-.149.152-.317.219-.488z" transform="translate(-263.879 -22.401)"/></g><path d="m395.409 132.166a1.924 1.924 0 0 1 -1.714-2.788l8.785-17.418a1.922 1.922 0 0 1 3.432 1.731l-8.785 17.417a1.921 1.921 0 0 1 -1.718 1.058z" fill="#fff" transform="translate(-261.294 -22.339)"/><path d="m402.5 131.633 55.611 48.249 10.142-20.065-76.527-18.954a11.533 11.533 0 1 0 -5.546 22.389l76.528 18.954.522.132a11.421 11.421 0 0 0 9.622-20.2l-62.2-43.356z" fill="#fcda70" transform="translate(-265.815 -20.121)"/><path d="m406.235 120.313s-3.994-6.793-8.04-4.676-4.923 13.021-.564 17 8.604-12.324 8.604-12.324z" fill="#f4586f" transform="translate(-260.942 -21.122)"/><path d="m376.821 160.167c-2.437 9.638-5.428 19.109-8.539 28.533-1.548 4.716-3.2 9.4-4.854 14.073l-.618 1.754-.7 1.724-1.4 3.444-2.794 6.889q-5.62 13.766-11.514 27.421c-3.963 9.092-7.967 18.162-12.243 27.123a7.964 7.964 0 0 1 -14.859-5.538c2.609-9.522 5.49-18.936 8.413-28.329q4.442-14.068 9.14-28.03l2.369-6.975 1.185-3.487.588-1.744.5-1.771c1.316-4.727 2.633-9.452 4.054-14.142 2.829-9.384 5.779-18.722 9.281-27.893v-.008a11.552 11.552 0 0 1 21.992 6.954z" fill="#fcda70" transform="translate(-282.253 -12.523)"/><path d="m370.069 136.922s1.2 36 17.192 36 15.318-34.548 15.318-34.548-10.657-5.804-32.51-1.452z" fill="#f4586f" transform="translate(-267.885 -15.472)"/></g><path d="m288.574 288.962h-75.733a11.807 11.807 0 0 1 -11.485-9.076l-.3-1.273-12.856-54.382a17.712 17.712 0 0 1 34.473-8.154 18.736 18.736 0 0 1 .47 3.606l1.486 55.862-11.788-10.345h75.734z" fill="#3e2945" transform="translate(-6.193 11.053)"/><path d="m266.424 251.414s15.259 0 15.259 18.77h-15.259z" fill="#fcda70" transform="translate(15.957 24.836)"/><path d="m138.083 201.9a17.751 17.751 0 0 1 13.59 17.257v47.843a17.753 17.753 0 0 1 -12.836 17.058l-.753.217z" fill="#f4586f" transform="translate(-20.162 10.901)"/><path d="m161.593 332.656a17.754 17.754 0 0 1 17.258-13.589h61.061a17.751 17.751 0 0 1 17.057 12.833l.218.753z" fill="#f4586f" transform="translate(-13.545 43.876)"/><path d="m264.442 366.125h-88.226a38.678 38.678 0 0 1 -38.634-38.634v-124.43a.641.641 0 1 1 1.281 0v124.43a37.4 37.4 0 0 0 37.352 37.352h88.226a.641.641 0 0 1 0 1.281z" fill="#3e2945" transform="translate(-20.303 11.048)"/><path d="m125.47 473.223a.7.7 0 0 1 -.152-.018.641.641 0 0 1 -.472-.774l35.447-146.7a.641.641 0 0 1 1.246.3l-35.447 146.7a.641.641 0 0 1 -.622.492z" fill="#3e2945" transform="translate(-23.892 45.614)"/><path d="m256.3 472.117a.641.641 0 0 1 -.623-.491l-34.24-141.664a.641.641 0 1 1 1.246-.3l34.24 141.663a.641.641 0 0 1 -.472.774.682.682 0 0 1 -.151.018z" fill="#3e2945" transform="translate(3.291 46.72)"/><path d="m269.325 404.061h-134.225a.641.641 0 0 1 0-1.281h134.225a.641.641 0 0 1 0 1.281z" fill="#3e2945" transform="translate(-21.182 67.435)"/><path d="m295.654 469.982-6.248-150.712 19.862 21.917-135.133-2.1a33.3 33.3 0 1 1 1.037-66.6 35.967 35.967 0 0 1 5.476.539l132.942 24.328 2.776.508a20.866 20.866 0 0 1 17.087 21.409l-6.253 150.711z" fill="#2f7ad3" transform="translate(-19.242 30.766)"/><path d="m373.325 471.6-81.895-142.78 17.741 12.061-133.555-.624a33.305 33.305 0 1 1 .311-66.61 35.938 35.938 0 0 1 5.546.492l131.584 22.867 2.791.484a20.411 20.411 0 0 1 14.95 11.576l70.202 148.641z" fill="#2f7ad3" transform="translate(-18.928 31.093)"/><path d="m141.436 325.562 14.235-105.756a30.9 30.9 0 0 1 30.657-27.065h22.247a30.9 30.9 0 0 1 30.844 29.1l4.967 85.286s-10.9 20.044-45.092 22.415c-39.148 2.712-57.858-3.98-57.858-3.98z" fill="#3e2945" transform="translate(-19.218 8.324)"/><path d="m178.5 179.129a1.281 1.281 0 0 1 -1.281-1.281v-9.63c0-10.081 8.875-18.282 19.786-18.282a18.155 18.155 0 0 1 18.4 15.272 1.281 1.281 0 0 1 -2.523.448 15.656 15.656 0 0 0 -15.882-13.156c-9.5 0-17.224 7.053-17.224 15.719v9.63a1.282 1.282 0 0 1 -1.276 1.28z" fill="#f4586f" transform="translate(-9.148 -3.722)"/><path d="m192.238 153.447a15.293 15.293 0 0 0 -4.271 1.6c-12.32 6.835-9.954 25.785-2.658 35.681 4.038 5.478 10.96 9.113 17.94 8.278 10.208-1.222 15.464-10.438 15.594-19.628a26.964 26.964 0 0 0 -7.314-18.971c-4.912-5.097-12.389-8.42-19.291-6.96z" fill="#fcda70" transform="translate(-8.566 -2.831)"/><path d="m184.755 179.313a7.287 7.287 0 0 1 -6.825-.051 6.881 6.881 0 0 1 -3.343-5.654 5.332 5.332 0 0 1 2.82-4.957 4.48 4.48 0 0 1 5.524 1.645z" fill="#fcda70" transform="translate(-9.888 1.444)"/><path d="m182.388 172.842-4.718 26.035c-1.088 5.787 2.9 11.443 9.106 12.905 7.163 1.689 14.156-2.879 14.774-9.65l2.28-24.232z" fill="#fcda70" transform="translate(-9.071 2.724)"/><path d="m200.027 195.2.52-4.35a20.43 20.43 0 0 1 -16.561-8.386s2.914 9.124 16.041 12.736z" fill="#3e2945" transform="translate(-7.243 5.432)"/><path d="m200.61 181.3c.154-.254.228-.246.286-.241a.308.308 0 0 0 .074-.009.232.232 0 0 1 .105-.009.246.246 0 0 1 .118.114.252.252 0 0 0 .077.088.106.106 0 0 0 .045.012.283.283 0 0 0 .07-.017c.038-.014.085-.045.105-.018a.467.467 0 0 0 .14.006l.042-.005a.464.464 0 0 1 .252.005l.018.008a.161.161 0 0 1 .078.065c.038.055.083.1.118.088.017-.005.028-.028.041-.049l.023-.037c.053-.079.115-.058.191-.035s.1-.059.085-.128v-.019c0-.01.01-.01.01-.01h.008c0-.012.013-.013.029-.012l.055.009a.148.148 0 0 0 .064 0 .023.023 0 0 0 .019-.024.118.118 0 0 0 -.026-.058l-.018-.029c-.017-.027.014-.042-.008-.074-.038-.051-.009-.088.019-.132l.026-.051a.527.527 0 0 0 .019-.167v-.108a.793.793 0 0 1 .123-.2.576.576 0 0 0 .1-.138.249.249 0 0 0 0-.146 1.089 1.089 0 0 1 .028-.509.1.1 0 0 0 0-.081.311.311 0 0 0 -.05-.053.28.28 0 0 1 -.072-.086.145.145 0 0 1 0-.1l.027-.146.024-.163.006-.051a.245.245 0 0 0 0-.122.362.362 0 0 1 -.014-.219.573.573 0 0 1 .035-.076.335.335 0 0 0 .036-.083.358.358 0 0 0 -.023-.172c-.028-.095-.06-.193.031-.284l.047-.042c.031-.026.06-.049.064-.072a.212.212 0 0 0 -.045-.092.4.4 0 0 1 -.023-.4l.067-.17.078-.206.049-.154.045-.142a.194.194 0 0 0 .018-.117l-.014-.049a.33.33 0 0 1 -.021-.1.364.364 0 0 1 .027-.119.2.2 0 0 0 .014-.154.442.442 0 0 0 -.054-.077.236.236 0 0 1 -.073-.14.265.265 0 0 1 .054-.105l.024-.031a.182.182 0 0 0 .029-.16l-.012-.027a.155.155 0 0 1 -.017-.065l.014-.128a.606.606 0 0 1 .083-.311.44.44 0 0 0 .01-.395.538.538 0 0 1 -.008-.387.3.3 0 0 0 .006-.249.316.316 0 0 1 -.012-.154.325.325 0 0 0 0-.111.5.5 0 0 0 -.051-.114.385.385 0 0 1 -.062-.159.284.284 0 0 1 .078-.177.287.287 0 0 0 .038-.073l.019-.046a.28.28 0 0 0 .006-.215l-.036-.1a.789.789 0 0 1 -.058-.2.423.423 0 0 1 .167-.354c.045-.042.017-.135 0-.2a.449.449 0 0 1 -.022-.083.731.731 0 0 1 .05-.359l.028-.095c.018-.069.05-.2.484-.208.065 0 .138 0 .22.005a3.486 3.486 0 0 1 .487.058c.338.069.39.169.415.218a.252.252 0 0 1 .017.19.781.781 0 0 1 -.1.2l-.072.128-.064.123a.069.069 0 0 0 0 .055v.054a.873.873 0 0 1 -.038.133.8.8 0 0 0 -.037.138.715.715 0 0 0 .042.277.163.163 0 0 0 .042.082l.031.027.042.037a.133.133 0 0 1 .01.173l-.02.047-.077.213-.006.019a.611.611 0 0 0 .031.47.314.314 0 0 1 .067.2.192.192 0 0 1 -.014.064l-.024.047c-.019.031-.037.06-.026.088a.181.181 0 0 1 -.05.169.455.455 0 0 1 -.065.067.306.306 0 0 0 -.054.054c-.045.062-.009.132.031.206a.265.265 0 0 1 .044.22.325.325 0 0 1 -.06.085l-.044.054a.174.174 0 0 0 -.018.145.274.274 0 0 0 .033.072.286.286 0 0 1 .041.1c.014.106-.017.211 0 .319a1.948 1.948 0 0 1 0 .812l-.008.044a.427.427 0 0 1 -.044.137.186.186 0 0 1 -.077.055l-.033.018a.132.132 0 0 0 -.051.07.279.279 0 0 0 .067.186.376.376 0 0 1 .077.188.31.31 0 0 1 -.069.156l-.014.022a.94.94 0 0 0 -.1.208l-.054.131c-.013.028.01.064.036.1l.033.055a.2.2 0 0 1 .012.2.39.39 0 0 0 -.049.126c-.01.053-.021.1-.131.195-.079.068-.135.117-.031.182a.231.231 0 0 1 .136.208.428.428 0 0 1 -.045.138.223.223 0 0 0 -.027.2 1.05 1.05 0 0 1 .144.78.256.256 0 0 1 -.086.1c-.038.032-.076.062-.069.094a.253.253 0 0 0 .054.1c.044.06.088.123.047.188a.387.387 0 0 1 -.114.1.659.659 0 0 0 -.077.06c-.059.063-.027.14 0 .229a.37.37 0 0 1 .022.22.459.459 0 0 1 -.085.14.688.688 0 0 0 -.069.095.155.155 0 0 0 -.022.108.2.2 0 0 1 -.032.146 4.318 4.318 0 0 1 -.336.578l-.053.081a1.236 1.236 0 0 1 -.525.429l-.038.018a1.386 1.386 0 0 1 -.574.132.157.157 0 0 1 -.09-.049.071.071 0 0 0 -.054 0 .387.387 0 0 0 -.065.032.2.2 0 0 1 -.249 0l-.04-.022a.324.324 0 0 0 -.165-.022l-.4.022-.109.014a.389.389 0 0 1 -.284-.032.381.381 0 0 1 -.081-.072.232.232 0 0 1 -.028-.047c-.015-.031-.029-.035-.037-.049-.032-.064-.095-.068-.155-.073h-.033a.46.46 0 0 0 -.094 0 .355.355 0 0 1 -.149-.013.283.283 0 0 1 -.137-.124l-.013-.019a.36.36 0 0 1 -.04-.32 2.472 2.472 0 0 1 .155-.5 2.277 2.277 0 0 1 .162-.286z" fill="#3e2945" transform="translate(-2.653 2.291)"/><path d="m198.924 180.949c.279-.094.306-.083.328-.076a.119.119 0 0 0 .04 0c.023 0 .045 0 .053.008s-.017.038-.044.067-.041.041-.042.054l.009.013a.186.186 0 0 0 .041 0c.024 0 .07-.009.055.009a.109.109 0 0 0 .047.031l.018.006c.041.017.083.032.07.078v.012a.128.128 0 0 1 -.04.065c-.04.044-.073.085-.058.095a.115.115 0 0 0 .049 0h.035c.073-.006.056.044.031.1s.042.051.11.044h.019c.01 0 .009.012.009.012v.008c.009.005.01.015.005.032l-.024.051a.277.277 0 0 0 -.024.055c0 .01 0 .019.008.021a.135.135 0 0 0 .054-.009l.028-.008c.028-.008.017.019.049.009.051-.018.049.01.046.037v.028a.073.073 0 0 0 .038.042l.027.022a.37.37 0 0 1 -.036.118.371.371 0 0 0 -.036.094c0 .02.017.019.04.02a.11.11 0 0 1 .113.1c0 .01 0 .019.021.012l.045-.031a.389.389 0 0 1 .069-.044c.017-.005.02 0 .023.015l.02.04a.118.118 0 0 0 .026.04l.009.013a.026.026 0 0 0 .033.013c.029-.009.06-.015.067.013a.177.177 0 0 1 0 .037.093.093 0 0 0 0 .038c.008.015.033.008.059 0 .041-.013.083-.029.06.055l-.014.044a.475.475 0 0 0 -.014.062.243.243 0 0 0 .049-.029c.095-.073.112-.029.122.017l.015.073.022.085.023.055.022.05c.005.017.009.032.026.026l.021-.008a.059.059 0 0 1 .037-.012c.012 0 .018.017.024.031s.015.041.04.022l.045-.045c.027-.031.055-.064.068-.059a.091.091 0 0 1 .01.055v.024c0 .036.014.047.036.036l.012-.009a.071.071 0 0 1 .026-.013l.032.018c.028.01.056.02.065.088.01.086.062.058.114.023s.095-.064.117 0c.013.037.038.041.072.008a.036.036 0 0 1 .046-.009.032.032 0 0 0 .033 0 .249.249 0 0 0 .044-.053c.02-.03.041-.059.056-.062s.028.037.036.074a.1.1 0 0 0 .014.036l.01.019c.013.029.032.032.06 0l.032-.038a.256.256 0 0 1 .062-.065c.036-.017.062.035.085.152.009.044.037.014.056-.012a.133.133 0 0 1 .024-.027c.041-.028.065 0 .1.028l.026.023c.021.013.054.038.07.472l.005.22c0 .181 0 .351-.005.49-.017.341-.06.4-.081.427a.061.061 0 0 1 -.083.027.3.3 0 0 1 -.087-.088l-.053-.067-.049-.058c-.008-.01-.015-.005-.024 0a.079.079 0 0 1 -.022.005.192.192 0 0 1 -.054-.035.152.152 0 0 0 -.055-.035c-.037-.009-.078.021-.12.047a.112.112 0 0 0 -.04.044l-.015.031-.022.042c-.035.062-.056.032-.076.008l-.018-.019a.655.655 0 0 1 -.078-.079l-.008-.008a.147.147 0 0 0 -.208.022c-.041.045-.076.063-.1.056a.055.055 0 0 1 -.024-.018l-.015-.026c-.009-.021-.017-.04-.032-.029-.031.019-.047-.015-.06-.056l-.01-.067-.009-.055c-.013-.045-.051-.015-.094.017s-.083.06-.105.026a.193.193 0 0 1 -.017-.065l-.009-.044c-.009-.029-.026-.038-.054-.029a.184.184 0 0 0 -.041.027.143.143 0 0 1 -.055.031c-.05 0-.082-.038-.133-.031a.349.349 0 0 1 -.334-.1l-.014-.014a.122.122 0 0 1 -.037-.058.288.288 0 0 1 .013-.076l.008-.032c.005-.028 0-.046 0-.055s-.059.006-.105.033-.086.05-.11.037-.024-.047-.028-.085v-.017a.373.373 0 0 0 -.032-.117l-.022-.065c0-.017-.029 0-.058.013l-.038.019c-.038.014-.077.019-.081-.027a.1.1 0 0 0 -.02-.063c-.013-.019-.026-.036 0-.145.021-.077.036-.129-.049-.058s-.129.09-.155.069a.113.113 0 0 1 -.022-.065c-.006-.038-.01-.074-.054-.063-.214.06-.337.033-.37-.069a.2.2 0 0 1 .023-.088c.015-.036.031-.07.015-.073a.157.157 0 0 0 -.072.014c-.051.017-.105.032-.1-.013a.389.389 0 0 1 .049-.1l.036-.067c.022-.055-.024-.049-.074-.042s-.078.009-.09-.014a.134.134 0 0 1 .009-.07.238.238 0 0 0 .01-.051c0-.017-.012-.022-.031-.017s-.037 0-.044-.017a.248.248 0 0 0 -.123-.123l-.028-.01a.213.213 0 0 1 -.14-.118v-.01a.32.32 0 0 1 -.041-.174c0-.012.019-.031.042-.055a.014.014 0 0 0 0-.019.14.14 0 0 0 -.031-.005c-.017 0-.033 0-.04-.013s.006-.038.022-.064l.014-.022c.015-.028.008-.042-.006-.055a.384.384 0 0 0 -.115-.085l-.045-.015c-.044-.013-.09-.027-.074-.072a.153.153 0 0 1 .027-.051l.028-.029c.019-.018.017-.023.026-.032.038-.038.017-.051-.006-.065l-.012-.008a.163.163 0 0 0 -.042-.018c-.026-.009-.051-.017-.058-.035s0-.051.036-.088l.009-.012c.023-.031.055-.073.238-.16.146-.069.313-.137.481-.2z" fill="#3e2945" transform="translate(-3.34 4.984)"/><path d="m197.2 173.5a.7.7 0 1 0 .791-.584.7.7 0 0 0 -.791.584z" fill="#3e2945" transform="translate(-3.525 2.741)"/><path d="m197.092 173.527c-.1-.036-.1-.073-.1-.1v-.035a.137.137 0 0 1 0-.051.134.134 0 0 1 .051-.065.244.244 0 0 0 .041-.04l.01-.023.006-.037c0-.02 0-.046.015-.055l.042-.076.013-.024a.361.361 0 0 1 .126-.138l.013-.008a.122.122 0 0 1 .068-.022.161.161 0 0 0 .091-.017.122.122 0 0 0 .026-.031l.017-.022a.2.2 0 0 1 .164-.054.336.336 0 0 0 .16-.056l.015-.008a.044.044 0 0 1 .026 0h.012a.116.116 0 0 1 .051 0l.044.018.046.022a.076.076 0 0 0 .033.005.333.333 0 0 0 .045-.012l.022-.006c.022-.005.041.009.064 0a.142.142 0 0 1 .1.026l.031.019.091.041.051.026a.29.29 0 0 1 .062.088.524.524 0 0 0 .029.065.184.184 0 0 0 .05.04.361.361 0 0 1 .142.172.059.059 0 0 0 .019.029l.027.009a.1.1 0 0 1 .041.021.07.07 0 0 1 .02.04l.021.065.017.073.005.023a.143.143 0 0 0 .015.054.164.164 0 0 1 .023.1l-.008.037-.01.038a.352.352 0 0 0 .01.078.125.125 0 0 1 -.022.128l-.019.017a.082.082 0 0 0 -.028.027.115.115 0 0 0 .005.042.18.18 0 0 1 -.051.172l-.056.059-.073.062-.054.044-.053.035a.151.151 0 0 0 -.038.031l-.012.018-.027.033a.17.17 0 0 1 -.046.023.125.125 0 0 0 -.056.033c-.006.009-.012.022-.018.033a.094.094 0 0 1 -.04.053.136.136 0 0 1 -.051 0h-.017a.1.1 0 0 0 -.069.014l-.009.009a.069.069 0 0 1 -.026.013l-.056.01a.234.234 0 0 1 -.138-.009.286.286 0 0 0 -.17-.006.217.217 0 0 1 -.164-.029.181.181 0 0 0 -.1-.04.18.18 0 0 1 -.063-.024.235.235 0 0 0 -.044-.024.224.224 0 0 0 -.053-.01.19.19 0 0 1 -.072-.024.135.135 0 0 1 -.045-.074.132.132 0 0 0 -.015-.033l-.01-.019a.163.163 0 0 0 -.061-.073l-.037-.028a.263.263 0 0 1 -.067-.064.182.182 0 0 1 -.018-.172c.009-.024-.017-.058-.029-.085l-.018-.035a.28.28 0 0 1 -.006-.161l.008-.044c.005-.03.021-.09.174-.082l.078.008.172.032c.119.028.138.046.147.054s.017.02.012.033a.194.194 0 0 1 -.028.04.125.125 0 0 0 -.017.028l-.014.029v.01l.005.01v.029a.12.12 0 0 0 0 .031.084.084 0 0 0 .046.04.039.039 0 0 0 .023 0h.012.017c.026-.005.026.006.026.019v.01l.013.045a.063.063 0 0 0 .085.032.065.065 0 0 1 .044-.01l.008.008.005.01c0 .009.008.014.013.012s.019.008.027.022l.008.023.008.021c.01.018.027 0 .042-.01s.028-.029.042-.021a.092.092 0 0 1 .017.021l.013.013a.023.023 0 0 0 .029 0l.01-.017a.054.054 0 0 1 .015-.021c.017-.013.038-.009.053-.026a.323.323 0 0 1 .11-.095h.008a.068.068 0 0 1 .026-.01.13.13 0 0 1 .027.009h.01a.027.027 0 0 0 .023 0c.01-.006 0-.027 0-.045s-.015-.036-.01-.045.017-.013.031-.018h.005a.1.1 0 0 0 .042-.029l.023-.023c.005-.005 0-.014-.012-.023l-.01-.013c-.009-.013-.019-.027-.005-.038a.04.04 0 0 0 .015-.026c0-.01.006-.018.04-.044s.044-.035 0-.041-.056-.014-.061-.028a.068.068 0 0 1 0-.031c.005-.017.006-.032-.01-.04-.085-.028-.124-.04-.138-.079a.083.083 0 0 1 .006-.035c0-.013.006-.027 0-.028a.049.049 0 0 0 -.028.005c-.018.006-.037.017-.038 0a.179.179 0 0 1 0-.041v-.028c0-.023-.02-.017-.04-.008a.053.053 0 0 1 -.037.008.063.063 0 0 1 -.017-.024l-.012-.019a.012.012 0 0 0 -.017 0 .015.015 0 0 1 -.022 0 .13.13 0 0 0 -.082 0l-.012.008a.169.169 0 0 1 -.076.028h-.005a.3.3 0 0 1 -.078.008.1.1 0 0 1 -.022-.015h-.009l-.005.012-.008.017c-.005 0-.017 0-.029 0h-.009a.026.026 0 0 0 -.026.01.156.156 0 0 0 -.033.063v.02c0 .019 0 .037-.019.044l-.023.005h-.015a.045.045 0 0 0 -.015 0c-.02 0-.023.012-.022.026v.006.021a.065.065 0 0 1 0 .031c0 .012-.014.019-.033.027h-.005a.176.176 0 0 1 -.105.017 1.348 1.348 0 0 1 -.186-.017.614.614 0 0 1 -.096-.026z" fill="#3e2945" transform="translate(-3.584 2.673)"/><path d="m202.391 171.242c.117-.279.086-.318.063-.35a.162.162 0 0 1 -.019-.05.14.14 0 0 0 -.035-.069c-.028-.019-.074 0-.12.018a.172.172 0 0 1 -.088.024.046.046 0 0 1 -.027-.018.175.175 0 0 1 -.023-.054c-.01-.032-.018-.083-.045-.072a.4.4 0 0 1 -.088-.068l-.024-.026a.3.3 0 0 0 -.2-.117h-.02a.134.134 0 0 0 -.1.032c-.058.041-.11.077-.14.058a.128.128 0 0 1 -.029-.058l-.018-.042c-.047-.09-.133-.076-.217-.05s-.129-.046-.181-.128l-.014-.023c-.008-.013-.019-.012-.031-.01h-.015a.077.077 0 0 0 -.065-.005.3.3 0 0 0 -.068.033.309.309 0 0 1 -.074.033.048.048 0 0 1 -.044-.006.188.188 0 0 1 -.038-.064l-.018-.033c-.018-.032-.051-.014-.068-.05-.028-.062-.077-.051-.123-.044l-.047.006a.363.363 0 0 1 -.122-.032l-.068-.024a.428.428 0 0 0 -.15.083.332.332 0 0 1 -.1.076c-.027.012-.049-.008-.078-.029a.335.335 0 0 0 -.287-.063c-.018 0-.035.008-.046-.012a.308.308 0 0 1 -.018-.058.248.248 0 0 0 -.035-.087.054.054 0 0 0 -.056-.013h-.087a.48.48 0 0 1 -.1 0h-.031a.086.086 0 0 1 -.069-.017.13.13 0 0 0 -.123-.044.257.257 0 0 0 -.049.026.153.153 0 0 1 -.053.026c-.032.005-.063-.021-.095-.046-.05-.042-.1-.087-.168 0l-.028.045c-.019.028-.036.056-.049.058s-.026-.021-.047-.055a.154.154 0 0 0 -.227-.065l-.1.053-.123.065-.091.038-.082.036c-.023.012-.045.023-.068.009l-.027-.017a.129.129 0 0 0 -.055-.03.125.125 0 0 0 -.069.023c-.029.017-.059.033-.087.006a.3.3 0 0 1 -.045-.059c-.026-.04-.053-.082-.081-.082a.128.128 0 0 0 -.06.051l-.018.023a.068.068 0 0 1 -.092.024l-.015-.014a.064.064 0 0 0 -.038-.019l-.074.012a.223.223 0 0 0 -.176.082c-.065.086-.144.045-.228 0s-.156-.069-.224 0a.107.107 0 0 1 -.144.009.11.11 0 0 0 -.091-.01.12.12 0 0 1 -.064 0 .368.368 0 0 1 -.074-.049.207.207 0 0 0 -.1-.056c-.041 0-.07.047-.092.087a.109.109 0 0 1 -.036.042l-.023.022a.1.1 0 0 1 -.124.017l-.064-.028a.339.339 0 0 0 -.128-.044c-.074 0-.133.062-.17.193-.014.05-.074.026-.117.013a.225.225 0 0 0 -.054-.014.255.255 0 0 0 -.195.087l-.046.038c-.035.024-.1.071.022.5.019.065.042.136.067.217l.174.478c.134.328.2.373.227.395a.071.071 0 0 0 .095 0 .354.354 0 0 0 .069-.114l.042-.082.045-.073c.005-.013.017-.008.027-.005h.026a.207.207 0 0 0 .058-.045.2.2 0 0 1 .06-.045.209.209 0 0 1 .144.029.1.1 0 0 1 .049.037l.019.031.026.041c.044.06.067.032.086.006l.019-.022.091-.083.008-.008a.165.165 0 0 1 .233.023c.041.05.076.073.105.069a.053.053 0 0 0 .029-.014l.02-.026c.013-.019.024-.038.04-.026s.054-.012.077-.053l.026-.067.021-.055c.026-.047.065-.008.105.035s.077.081.11.051a.213.213 0 0 0 .037-.06l.024-.042a.047.047 0 0 1 .07-.017.143.143 0 0 1 .036.037c.018.02.035.041.05.045.053.019.1-.006.156.019a.5.5 0 0 0 .391.047l.02-.005a.132.132 0 0 0 .068-.035.216.216 0 0 0 .029-.076l.01-.032a.088.088 0 0 1 .037-.049c.028-.009.058.036.086.082s.055.092.086.1.053-.026.079-.055l.012-.013a.4.4 0 0 1 .109-.078l.069-.042c.015-.01.029.018.045.047l.023.038c.026.035.055.068.092.036a.129.129 0 0 1 .067-.035c.027-.005.05-.009.113-.11.044-.073.077-.123.092-.009s.038.159.077.164a.127.127 0 0 0 .073-.024c.037-.022.073-.041.1 0 .118.209.218.29.331.265.019-.005.042-.037.067-.07s.047-.064.06-.054a.178.178 0 0 1 .033.072c.017.054.032.109.072.078a.441.441 0 0 0 .07-.095l.046-.064c.041-.046.063 0 .086.051s.035.078.064.078a.143.143 0 0 0 .068-.038.161.161 0 0 1 .049-.031c.018-.006.028 0 .033.021s.022.035.041.035a.33.33 0 0 1 .186.085l.022.024a.278.278 0 0 0 .179.105h.013a.409.409 0 0 0 .2.009c.012 0 .028-.026.05-.054a.016.016 0 0 1 .02 0 .053.053 0 0 1 .015.029c.006.017.013.035.024.04s.042-.013.069-.033l.022-.017a.048.048 0 0 1 .065 0 .472.472 0 0 1 .115.12l.023.046c.021.046.041.094.091.076a.2.2 0 0 0 .058-.029l.031-.027a.193.193 0 0 1 .035-.024c.042-.038.06-.013.077.013l.009.014a.182.182 0 0 1 .022.047c.01.028.019.056.04.065s.059 0 .1-.027l.014-.008c.037-.021.088-.049.2-.226.091-.141.186-.3.27-.466z" fill="#3e2945" transform="translate(-4.129 1.882)"/><path d="m207.551 174.678a.7.7 0 1 0 .791-.584.7.7 0 0 0 -.791.584z" fill="#3e2945" transform="translate(-.614 3.075)"/><path d="m207.438 174.709c-.1-.037-.1-.074-.1-.1v-.035a.137.137 0 0 1 0-.051.127.127 0 0 1 .051-.065.208.208 0 0 0 .041-.041l.01-.022.005-.037c0-.02 0-.046.017-.056l.041-.076.014-.023a.349.349 0 0 1 .124-.138l.014-.008a.121.121 0 0 1 .067-.022.163.163 0 0 0 .092-.017.219.219 0 0 0 .026-.031l.015-.022a.2.2 0 0 1 .165-.054.346.346 0 0 0 .159-.056l.017-.008a.036.036 0 0 1 .026 0h.012a.1.1 0 0 1 .051 0l.044.018.046.021a.1.1 0 0 0 .033.006.33.33 0 0 0 .045-.012l.022-.006c.022-.005.041.009.064 0a.138.138 0 0 1 .1.026l.031.019.091.041.051.026a.3.3 0 0 1 .062.087.357.357 0 0 0 .029.067.161.161 0 0 0 .05.038.372.372 0 0 1 .141.172.07.07 0 0 0 .019.029l.027.01a.118.118 0 0 1 .042.019.083.083 0 0 1 .02.041l.019.065.018.072.005.024a.152.152 0 0 0 .014.053.177.177 0 0 1 .024.1l-.008.036-.01.04a.277.277 0 0 0 .01.077.127.127 0 0 1 -.022.129l-.021.015a.1.1 0 0 0 -.028.028.127.127 0 0 0 .006.042.184.184 0 0 1 -.051.172l-.058.058-.072.063-.054.044-.053.035a.127.127 0 0 0 -.038.031l-.012.018-.027.033a.172.172 0 0 1 -.046.023.125.125 0 0 0 -.056.033.16.16 0 0 0 -.018.033.091.091 0 0 1 -.041.053.128.128 0 0 1 -.05 0h-.017a.1.1 0 0 0 -.069.014l-.01.008a.051.051 0 0 1 -.026.014l-.055.01a.239.239 0 0 1 -.14-.01.28.28 0 0 0 -.169-.005.223.223 0 0 1 -.165-.031.172.172 0 0 0 -.1-.038.159.159 0 0 1 -.063-.026.234.234 0 0 0 -.044-.023.222.222 0 0 0 -.053-.01.166.166 0 0 1 -.072-.026.121.121 0 0 1 -.045-.073.165.165 0 0 0 -.015-.033l-.01-.019a.163.163 0 0 0 -.062-.073l-.037-.028a.289.289 0 0 1 -.067-.064.185.185 0 0 1 -.019-.173c.009-.023-.015-.056-.029-.083l-.017-.035a.284.284 0 0 1 -.006-.163l.008-.042c.005-.031.02-.091.174-.082l.078.008.172.032c.119.028.138.045.147.054s.017.02.01.033a.143.143 0 0 1 -.027.04.089.089 0 0 0 -.018.028l-.014.029.005.01.005.009v.031a.082.082 0 0 0 0 .031.084.084 0 0 0 .047.038.032.032 0 0 0 .023 0h.012.017c.026-.005.026.008.026.019v.012l.013.044a.063.063 0 0 0 .085.032.057.057 0 0 1 .044-.01l.008.008.005.01c0 .008.006.014.013.012s.019.008.026.022l.009.023.008.021c.01.018.027 0 .042-.01s.028-.03.042-.021a.163.163 0 0 1 .017.021l.012.012a.023.023 0 0 0 .029 0l.012-.017c.005-.009.009-.018.014-.021s.038-.009.054-.027a.318.318 0 0 1 .11-.094h.006a.073.073 0 0 1 .027-.01.1.1 0 0 1 .026.009h.012a.027.027 0 0 0 .023 0c.009-.008 0-.027 0-.045s-.017-.036-.012-.046a.068.068 0 0 1 .032-.017h.005a.094.094 0 0 0 .042-.029l.022-.022c.005-.005 0-.014-.01-.023l-.012-.013c-.008-.013-.018-.027 0-.04a.041.041 0 0 0 .015-.024c0-.01.006-.019.04-.044s.044-.035 0-.041-.056-.014-.06-.029a.051.051 0 0 1 0-.029c.005-.017.005-.033-.01-.04-.086-.028-.124-.04-.138-.081a.062.062 0 0 1 .006-.033c0-.013.006-.027 0-.028a.059.059 0 0 0 -.028 0c-.019.008-.037.018-.038 0a.165.165 0 0 1 0-.041v-.028c0-.023-.022-.017-.04-.008s-.028.012-.038.006-.01-.013-.015-.024l-.012-.018a.011.011 0 0 0 -.017 0c-.009.009-.014.006-.022 0a.126.126 0 0 0 -.083 0l-.01.006a.171.171 0 0 1 -.076.03h-.005a.368.368 0 0 1 -.079.009l-.02-.015h-.009l-.005.013-.008.017c-.006 0-.017 0-.029 0h-.01c-.012 0-.018 0-.024.012a.159.159 0 0 0 -.033.062v.022c0 .018 0 .037-.018.044l-.023.005h-.015a.029.029 0 0 0 -.015 0c-.021 0-.023.013-.022.026v.008.021a.066.066 0 0 1 0 .031c0 .01-.014.019-.033.027h-.005a.18.18 0 0 1 -.105.017 1.587 1.587 0 0 1 -.186-.017.77.77 0 0 1 -.104-.025z" fill="#3e2945" transform="translate(-.673 3.006)"/><path d="m212.7 172.419c.117-.279.087-.318.064-.349a.212.212 0 0 1 -.021-.051.135.135 0 0 0 -.033-.069c-.029-.019-.076 0-.12.018a.175.175 0 0 1 -.088.024.038.038 0 0 1 -.027-.018.22.22 0 0 1 -.024-.053c-.01-.033-.017-.085-.045-.072a.438.438 0 0 1 -.087-.069l-.026-.026a.292.292 0 0 0 -.2-.115h-.021a.138.138 0 0 0 -.1.032c-.058.041-.111.078-.141.058a.15.15 0 0 1 -.029-.058l-.018-.042c-.046-.09-.132-.076-.215-.049s-.129-.047-.181-.129l-.015-.023c-.008-.012-.018-.012-.031-.01h-.014a.077.077 0 0 0 -.065-.005.558.558 0 0 0 -.069.033.3.3 0 0 1 -.073.033.047.047 0 0 1 -.044-.006.189.189 0 0 1 -.038-.064l-.018-.033c-.018-.032-.053-.013-.069-.05-.028-.062-.076-.051-.122-.042l-.049.005a.312.312 0 0 1 -.12-.032l-.069-.024a.409.409 0 0 0 -.149.085.4.4 0 0 1 -.1.076c-.028.01-.049-.008-.078-.031a.337.337 0 0 0 -.288-.063c-.017.005-.033.008-.045-.01a.351.351 0 0 1 -.019-.059.238.238 0 0 0 -.033-.087.052.052 0 0 0 -.056-.012h-.088a.48.48 0 0 1 -.1 0h-.036a.083.083 0 0 1 -.068-.017.131.131 0 0 0 -.123-.044.168.168 0 0 0 -.049.027.174.174 0 0 1 -.053.024c-.033.005-.063-.019-.095-.046-.051-.042-.1-.087-.168 0l-.029.045c-.018.028-.035.056-.049.058s-.026-.02-.047-.055a.153.153 0 0 0 -.226-.064l-.1.051-.123.065-.091.04-.082.035c-.023.012-.045.023-.068.01l-.027-.018a.133.133 0 0 0 -.056-.029.123.123 0 0 0 -.068.023c-.031.017-.059.033-.088.006a.26.26 0 0 1 -.044-.059c-.027-.04-.054-.081-.081-.082a.136.136 0 0 0 -.06.051l-.019.023a.065.065 0 0 1 -.091.024l-.017-.014a.062.062 0 0 0 -.038-.019l-.073.013a.218.218 0 0 0 -.176.081c-.065.086-.144.045-.228 0s-.158-.068-.224 0a.106.106 0 0 1 -.144.009.11.11 0 0 0 -.091-.009.14.14 0 0 1 -.065 0 .259.259 0 0 1 -.073-.049.206.206 0 0 0 -.1-.056c-.041 0-.07.047-.092.088a.115.115 0 0 1 -.036.041l-.023.022a.1.1 0 0 1 -.124.018l-.065-.029a.356.356 0 0 0 -.127-.044c-.076 0-.135.061-.17.193-.014.05-.074.026-.118.013a.205.205 0 0 0 -.053-.013.254.254 0 0 0 -.195.086l-.046.038c-.035.024-.1.07.021.5l.068.218c.064.177.124.341.173.477.135.328.2.373.227.395a.071.071 0 0 0 .1 0 .362.362 0 0 0 .069-.114l.042-.082.044-.073c.006-.012.017-.008.027-.005h.027a.226.226 0 0 0 .058-.045.2.2 0 0 1 .059-.045.213.213 0 0 1 .145.029.093.093 0 0 1 .049.038l.019.029.026.041c.044.06.065.032.086.006l.019-.022.09-.082.009-.009a.165.165 0 0 1 .232.023c.042.05.077.073.106.069a.057.057 0 0 0 .029-.014l.019-.026c.013-.019.026-.038.04-.026.031.023.055-.01.077-.051l.026-.068.022-.055c.026-.047.064-.008.105.035s.077.082.11.053a.242.242 0 0 0 .037-.062l.024-.042a.047.047 0 0 1 .069-.017.145.145 0 0 1 .037.037c.018.021.035.041.05.045.053.019.1-.006.155.019a.5.5 0 0 0 .391.047l.022-.005a.134.134 0 0 0 .068-.033.273.273 0 0 0 .029-.076l.01-.033a.087.087 0 0 1 .037-.049c.028-.008.056.036.086.083s.055.092.086.1.053-.026.079-.055l.012-.013a.391.391 0 0 1 .109-.079l.069-.042c.014-.01.029.018.045.047l.023.04c.024.033.055.068.092.035a.12.12 0 0 1 .067-.033c.027-.005.049-.01.111-.112.045-.072.078-.123.094-.008s.038.158.077.164a.126.126 0 0 0 .073-.026c.038-.021.074-.041.1 0 .117.209.218.29.331.265.019-.005.042-.036.067-.069s.046-.065.06-.055a.163.163 0 0 1 .032.072c.017.054.033.11.072.078a.438.438 0 0 0 .072-.095l.045-.064c.042-.046.064 0 .086.051s.036.078.065.078a.136.136 0 0 0 .067-.037.191.191 0 0 1 .05-.032c.018-.006.028 0 .033.022s.022.033.041.033a.325.325 0 0 1 .186.086l.021.024a.288.288 0 0 0 .181.1h.013a.39.39 0 0 0 .2.009c.013 0 .029-.024.05-.053a.017.017 0 0 1 .022 0 .088.088 0 0 1 .015.029c.006.018.013.035.024.04s.042-.013.069-.033l.022-.017a.047.047 0 0 1 .064 0 .452.452 0 0 1 .115.12l.024.047c.02.045.04.092.091.076a.267.267 0 0 0 .056-.029l.032-.028c.019-.019.026-.015.035-.024.042-.038.06-.013.077.013l.009.014a.183.183 0 0 1 .022.047c.009.028.019.056.04.065s.059 0 .1-.027l.014-.008c.038-.021.09-.049.2-.226a5.129 5.129 0 0 0 .272-.466c.041-.093.088-.194.132-.284z" fill="#3e2945" transform="translate(-1.228 2.213)"/><path d="m180.77 175.373a16.294 16.294 0 0 0 18.91 11c.809-.155.466-1.39-.341-1.235a15 15 0 0 1 -17.334-10.1c-.261-.778-1.5-.443-1.235.341z" fill="#f4586f" transform="translate(-8.158 3.216)"/><path d="m179.247 172.854a7.887 7.887 0 0 0 10.864-2.1c1.3-2.064 1.768-4.919 3.961-5.988s4.725.324 7.009 1.211a17.009 17.009 0 0 0 13.871-.789s-3.942-12.157-19.461-12.09c-18.007.08-16.244 19.756-16.244 19.756z" fill="#3e2945" transform="translate(-8.59 -2.831)"/><path d="m189.151 175.563a7.869 7.869 0 1 1 -7.869-7.869 7.869 7.869 0 0 1 7.869 7.869z" fill="#ededed" transform="translate(-10.219 1.276)"/><circle cx="169.351" cy="176.838" fill="#f4586f" r="7.869"/><path d="m178.5 179.129a1.281 1.281 0 0 1 -1.281-1.281v-9.63c0-10.081 8.875-18.282 19.786-18.282a1.281 1.281 0 1 1 0 2.563c-9.5 0-17.224 7.053-17.224 15.719v9.63a1.282 1.282 0 0 1 -1.281 1.281z" fill="#f4586f" transform="translate(-9.148 -3.722)"/><path d="m198.138 183.342a1.544 1.544 0 1 1 -1.544-1.544 1.544 1.544 0 0 1 1.544 1.544z" fill="#f4586f" transform="translate(-4.129 5.245)"/><path d="m293.316 426.608v7.1l12.7 9.8h-44.25v-16.9z" fill="#f4586f" transform="translate(14.647 74.141)"/><path d="m262.468 438.276h39.1a.641.641 0 0 0 0-1.281h-39.1a.641.641 0 0 0 0 1.281z" fill="#fff" transform="translate(14.67 77.063)"/><path d="m286.834 428.227h-3.04a.641.641 0 0 0 0 1.281h3.04a.641.641 0 0 0 0-1.281z" fill="#fff" transform="translate(20.671 74.596)"/><path d="m286.834 430.32h-3.04a.641.641 0 0 0 0 1.281h3.04a.641.641 0 0 0 0-1.281z" fill="#fff" transform="translate(20.671 75.185)"/><path d="m350.16 417.035 3.2 6.341 16.561 3.185-38.975 19.639-8.42-15.247z" fill="#f4586f" transform="translate(31.746 71.446)"/><path d="m328.942 442.93 34.64-18.13c.73-.382.083-1.489-.647-1.106l-34.641 18.131c-.73.382-.083 1.488.647 1.106z" fill="#fff" transform="translate(33.278 73.298)"/><path d="m345.2 418.462-2.693 1.41c-.73.382-.083 1.489.647 1.106l2.692-1.41c.732-.382.085-1.488-.646-1.106z" fill="#fff" transform="translate(37.278 71.826)"/><path d="m346.17 420.316-2.692 1.41c-.732.383-.085 1.489.646 1.107q1.347-.705 2.694-1.41c.73-.383.083-1.489-.647-1.107z" fill="#fff" transform="translate(37.551 72.348)"/><path d="m291.21 303.907-2.439 83.542 5.365 9.353z" fill="#3e2945" transform="translate(22.246 39.609)"/><path d="m2.6 0h39.266a2.6 2.6 0 0 1 2.6 2.6v1.829a0 0 0 0 1 0 0h-44.466a0 0 0 0 1 0 0v-1.829a2.6 2.6 0 0 1 2.6-2.6z" fill="#52b9cb" transform="translate(260.799 290.592)"/><path d="m238.365 259.408h1.735a8.526 8.526 0 0 1 8.527 8.527h-18.79a8.526 8.526 0 0 1 8.528-8.527z" fill="#52b9cb" transform="translate(5.661 27.086)"/><path d="m252.52 289.288h-106.533a11.853 11.853 0 0 1 -11.05-16.129l.419-1.061 23.332-59.576a17.69 17.69 0 0 1 32.943 12.9 18.9 18.9 0 0 1 -1.416 2.837l-33.6 54.452-10.632-17.19h106.537z" fill="#3e2945" transform="translate(-21.271 10.728)"/><path d="m227.07 251.414s15.259 0 15.259 18.77h-15.259z" fill="#fcda70" transform="translate(4.882 24.836)"/><path d="m177.392 215.487c3.148 3.847 1.647 8.364-.326 12.367-1.845 3.747-3.756 7.463-5.591 11.216-3.585 7.328-7.188 14.647-11.316 21.691a.647.647 0 0 0 .554.964h74.863a.641.641 0 0 0 0-1.281h-74.863l.554.965c5.136-8.764 9.44-17.959 13.95-27.051 2.99-6.03 8.241-13.473 3.082-19.776-.522-.638-1.424.273-.906.906z" fill="#553c60" transform="translate(-13.973 14.409)"/><path d="m174.8 193.507a15.564 15.564 0 1 0 30.777.131c-.1-.809-1.381-.818-1.281 0a14.474 14.474 0 0 1 -14.184 16.543c-8.916.026-15.159-8.12-14.03-16.674.108-.815-1.175-.807-1.281 0z" fill="#553c60" transform="translate(-9.868 8.369)"/><path d="m418.636 265.1h-132.478a5.268 5.268 0 0 1 -5.169-6.285l15.545-78.979a5.268 5.268 0 0 1 5.169-4.25h132.477a5.267 5.267 0 0 1 5.169 6.285l-15.549 78.976a5.267 5.267 0 0 1 -5.164 4.253z" fill="#44acbe" transform="translate(20.028 3.496)"/><path d="m331.874 215.649v38.173h12.281z" fill="#3e2945" transform="translate(34.377 14.771)"/><path d="m314.677 275.9h26.256a7.514 7.514 0 0 0 7.328-9.173l-11.548-51.039 22.115-.161 6.283 64.762h-50.434z" fill="#52b9cb" transform="translate(29.537 14.736)"/><path d="m289.659 258.812 15.541-78.98a5.269 5.269 0 0 1 5.169-4.25h-8.669a5.268 5.268 0 0 0 -5.169 4.25l-15.545 78.979a5.268 5.268 0 0 0 5.169 6.285h8.669a5.267 5.267 0 0 1 -5.165-6.284z" fill="#52b9cb" transform="translate(20.028 3.496)"/><path d="m353.341 280.324h27.234a11.424 11.424 0 0 0 11.143-13.946l-11.538-50.993h-38.663l11.538 50.993a11.424 11.424 0 0 1 -11.142 13.946h11.429z" fill="#44acbe" transform="translate(29.537 14.698)"/><g fill="#3e2945"><path d="m0 0h27.039v1.469h-27.039z" transform="matrix(.21727447 -.97611055 .97611055 .21727447 349.235 218.177)"/><path d="m0 0h27.039v1.469h-27.039z" transform="matrix(.217 -.976 .976 .217 356.7 218.177)"/><path d="m0 0h27.039v1.469h-27.039z" transform="matrix(.21727447 -.97611055 .97611055 .21727447 364.164 218.177)"/><path d="m0 0h27.039v1.469h-27.039z" transform="matrix(.21727447 -.97611055 .97611055 .21727447 371.629 218.177)"/><path d="m0 0h27.039v1.469h-27.039z" transform="matrix(.21725744 -.97611434 .97611434 .21725744 379.095 218.177)"/><path d="m0 0h27.039v1.469h-27.039z" transform="matrix(.21725744 -.97611434 .97611434 .21725744 386.559 218.177)"/><path d="m0 0h27.039v1.469h-27.039z" transform="matrix(.21725744 -.97611434 .97611434 .21725744 394.024 218.177)"/><path d="m0 0h27.039v1.469h-27.039z" transform="matrix(.217 -.976 .976 .217 401.489 218.177)"/><path d="m0 0h27.039v1.469h-27.039z" transform="matrix(.21727447 -.97611055 .97611055 .21727447 408.954 218.177)"/><path d="m0 0h27.039v1.469h-27.039z" transform="matrix(.21727447 -.97611055 .97611055 .21727447 416.418 218.177)"/><path d="m91.633 487.449a.73.73 0 0 1 -.091-.007.643.643 0 0 1 -.545-.725l30.471-215.457a.641.641 0 0 1 1.27.179l-30.472 215.461a.641.641 0 0 1 -.633.549z" transform="translate(-33.414 30.267)"/><path d="m202.19 487.456a.64.64 0 0 1 -.633-.55l-30.443-215.463a.641.641 0 0 1 1.269-.179l30.443 215.461a.643.643 0 0 1 -.545.725c-.031.003-.061.006-.091.006z" transform="translate(-10.867 30.268)"/><path d="m313.29 487.463a.73.73 0 0 1 -.091-.007.641.641 0 0 1 -.545-.724l30.471-215.459a.641.641 0 1 1 1.269.181l-30.47 215.459a.642.642 0 0 1 -.634.55z" transform="translate(28.966 30.271)"/><path d="m423.846 487.471a.64.64 0 0 1 -.633-.551l-30.443-215.462a.641.641 0 1 1 1.27-.181l30.443 215.463a.641.641 0 0 1 -.545.724.761.761 0 0 1 -.092.007z" transform="translate(51.512 30.272)"/></g><path d="m55.047 295.012h145.352v13.214h-145.352z" fill="#ffca39"/><path d="m200.399 295.026h277.49v13.214h-277.49z" fill="#e2a131"/><path d="m550.1 441.6-490.636-.032a.641.641 0 1 1 0-1.281l490.636.032a.641.641 0 0 1 0 1.281z" fill="#3e2945" transform="translate(-42.466 77.99)"/><path d="m455.27 441.591h-7.689a.641.641 0 1 1 0-1.281h7.689a.641.641 0 1 1 0 1.281z" fill="#3e2945" transform="translate(66.759 77.997)"/><path d="m56 441.566h-9.3a.641.641 0 0 1 0-1.281h9.3a.641.641 0 0 1 0 1.281z" fill="#3e2945" transform="translate(-46.059 77.99)"/><path d="m122.607 120.043c-15.1-.628-30.007 8.084-35.824 22.284-5.7 13.911-1.515 31.239 9.908 41.015 10.973 9.392 27.79 11.107 40.512 4.339 12.8-6.811 20.335-21.984 18.614-36.3-2-16.611-16.241-29.356-32.51-31.282-.736-.088-.729 1.066 0 1.152 17.963 2.128 32.689 17.936 31.524 36.381-1.18 18.681-16.808 33.69-35.7 32.98a34.872 34.872 0 0 1 -33.731-35.484c.222-19.8 17.873-34.737 37.2-33.932.742.032.741-1.123 0-1.153z" fill="#44acbe" transform="translate(-35.311 -12.143)"/><path d="m117.082 120.224a42.225 42.225 0 0 0 -1.208 69.757c.6.433 1.181-.566.583-1a41.06 41.06 0 0 1 1.207-67.764c.615-.41.038-1.408-.582-1z" fill="#44acbe" transform="translate(-31.431 -12.111)"/><path d="m113.4 121.819a43.036 43.036 0 0 1 .638 67.876c-.578.466.242 1.278.815.815a44.164 44.164 0 0 0 -.871-69.686c-.587-.452-1.162.548-.582 1z" fill="#44acbe" transform="translate(-27.177 -11.947)"/><path d="m92.187 130.083a34.6 34.6 0 0 0 52.576 1.14c.5-.547-.314-1.366-.816-.816a33.451 33.451 0 0 1 -50.947-1.139c-.477-.57-1.289.25-.815.815z" fill="#44acbe" transform="translate(-33.118 -9.592)"/><path d="m93.525 170.324a35.013 35.013 0 0 1 49.935-1.385c.541.507 1.358-.306.815-.815a36.17 36.17 0 0 0 -51.565 1.385c-.513.537.3 1.353.815.815z" fill="#44acbe" transform="translate(-32.977 -1.453)"/><path d="m85.027 148.474h69.734a.578.578 0 0 0 0-1.155h-69.734a.578.578 0 0 0 0 1.155z" fill="#44acbe" transform="translate(-35.249 -4.458)"/><path d="m340.87 109.346h-82.885a.641.641 0 1 1 0-1.281h82.885a.641.641 0 1 1 0 1.281z" fill="#44acbe" transform="translate(13.402 -15.505)"/><path d="m363.808 113.956a33.994 33.994 0 0 0 2.706 11.925 30.485 30.485 0 0 0 3.233 5.7c1.4 1.922 3.856 3.429 5.078 5.327-.331-.513-3.268-1.447-4.752-2.126a34.943 34.943 0 0 1 -7.632-4.8 36.932 36.932 0 0 1 -11.22-16.177.6.6 0 0 0 -.556-.424h-43.33c-1.686 0-3.4.087-5.083 0-8.928-.457-15.134-6.9-15.525-15.717-.331-7.471 0-15.03 0-22.507 0-8.962-1.461-19.635 7.667-24.979 5.3-3.1 12.759-2.114 18.686-2.114h50.692c1.633 0 3.295-.082 4.926 0 5.47.279 10.471 2.77 13.331 7.6 2.717 4.589 2.16 10 2.2 15.112q.063 7.99.136 15.981c.042 5.091.925 11.091-.688 15.983-2.942 8.925-11.061 10.638-19.292 10.638a.577.577 0 0 0 0 1.153c5.213 0 10.109-.04 14.508-3.292 6.628-4.9 6.722-12.043 6.665-19.571q-.071-9.219-.155-18.437c-.038-4.646.556-9.672-.71-14.193a16.747 16.747 0 0 0 -12.413-11.738c-6.739-1.456-14.584-.388-21.393-.388h-35.795c-7.294 0-16.4-1.371-22.658 3.177-8.265 6.007-6.859 16.132-6.859 25.07v17.606c0 4.063-.26 8.1 1.449 11.92 4.208 9.4 13.227 9.848 22.057 9.848h37.251c.829 0 3.318-.45 4.052 0 .041.024 1.076 3.023 1.116 3.119a31.347 31.347 0 0 0 3.717 6.33 36.735 36.735 0 0 0 21.333 14.13.579.579 0 0 0 .445-1.053c-7.559-5.442-11.52-13.914-12.034-23.1-.04-.742-1.194-.745-1.153-.003z" fill="#fcda70" transform="translate(21.322 -32.823)"/><path d="m362.137 60.835h-61.053a.641.641 0 1 1 0-1.281h61.054a.641.641 0 0 1 0 1.281z" fill="#fcda70" transform="translate(25.531 -29.158)"/><path d="m362.137 78.819h-61.053a.641.641 0 1 1 0-1.281h61.054a.641.641 0 0 1 0 1.281z" fill="#fcda70" transform="translate(25.531 -24.097)"/><path d="m336.747 67.253h-35.663a.641.641 0 1 1 0-1.281h35.663a.641.641 0 0 1 0 1.281z" fill="#fcda70" transform="translate(25.531 -27.351)"/><path d="m336.747 86.091h-35.663a.641.641 0 1 1 0-1.281h35.663a.641.641 0 0 1 0 1.281z" fill="#fcda70" transform="translate(25.531 -22.05)"/><path d="m356.25 73.672h-35.662a.641.641 0 1 1 0-1.281h35.662a.641.641 0 0 1 0 1.281z" fill="#fcda70" transform="translate(31.02 -25.545)"/><path d="m214.881 109.561a3.89 3.89 0 1 1 -3.89-3.889 3.89 3.89 0 0 1 3.89 3.889z" fill="#44acbe" transform="translate(-.738 -16.179)"/><path d="m228.319 109.561a3.89 3.89 0 1 1 -3.89-3.889 3.891 3.891 0 0 1 3.89 3.889z" fill="#f4586f" transform="translate(3.044 -16.179)"/><path d="m241.756 109.561a3.89 3.89 0 1 1 -3.89-3.889 3.89 3.89 0 0 1 3.89 3.889z" fill="#44acbe" transform="translate(6.825 -16.179)"/><path d="m255.193 109.561a3.89 3.89 0 1 1 -3.889-3.889 3.89 3.89 0 0 1 3.889 3.889z" fill="#f4586f" transform="translate(10.607 -16.179)"/><path d="m109.675 63.457 6.373 4.736a.577.577 0 0 0 .7-.09c1.715-1.772 3.243-3.711 4.958-5.483.516-.533-.3-1.349-.815-.815-.765.789-1.5 1.6-2.214 2.433-.56.645-1.654 2.387-2.458 2.441s-2.136-1.376-2.773-1.85l-3.186-2.368c-.6-.443-1.172.557-.583 1z" fill="#44acbe" transform="translate(-28.225 -28.573)"/><path d="m131.943 73.449c-.675-15.168-10.073-29.368-24.352-35.062-14.577-5.813-32.458-1.408-42.925 10.213-10.127 11.255-12.451 28.6-6.171 42.3 6.562 14.3 22.485 23.337 38.1 22.328 17.321-1.119 31.732-14.593 35.569-31.218.167-.721-.946-1.03-1.112-.306-4.177 18.1-21.076 31.933-39.993 30.311-19.884-1.7-35.4-18.467-34.865-38.489a37.579 37.579 0 0 1 36.779-36.53c20.394-.484 36.927 16.445 37.817 36.458.033.739 1.187.743 1.153 0z" fill="#44acbe" transform="translate(-43.538 -35.833)"/><path d="m69.852 58.4a6.6 6.6 0 0 1 2.022.308 4.905 4.905 0 0 1 1.7.929 4.476 4.476 0 0 1 1.16 1.563 5.181 5.181 0 0 1 .432 2.193 5.724 5.724 0 0 1 -.32 1.944 7.871 7.871 0 0 1 -.87 1.721 12.706 12.706 0 0 1 -1.276 1.6q-.727.778-1.525 1.59l-5.8 5.918a6.882 6.882 0 0 1 .87-.158 7.97 7.97 0 0 1 .91-.053h8a.457.457 0 0 1 .334.124.438.438 0 0 1 .124.32v.734h-11.954v-.446a.675.675 0 0 1 .073-.295.9.9 0 0 1 .177-.255l6.323-6.4q.786-.8 1.453-1.545a12.259 12.259 0 0 0 1.158-1.5 7.5 7.5 0 0 0 .773-1.558 5.1 5.1 0 0 0 .281-1.7 4.277 4.277 0 0 0 -.34-1.773 3.468 3.468 0 0 0 -.911-1.237 3.758 3.758 0 0 0 -1.308-.72 5.064 5.064 0 0 0 -1.552-.236 4.719 4.719 0 0 0 -1.616.268 4.287 4.287 0 0 0 -1.308.747 4.082 4.082 0 0 0 -.943 1.139 4.617 4.617 0 0 0 -.518 1.447.53.53 0 0 1 -.523.457.328.328 0 0 1 -.065-.006.5.5 0 0 0 -.065-.006l-.629-.105a6.276 6.276 0 0 1 .648-2.121 5.333 5.333 0 0 1 1.233-1.576 5.211 5.211 0 0 1 1.729-.975 6.569 6.569 0 0 1 2.123-.337z" fill="#3e2945" transform="translate(-41.106 -29.481)"/><path d="m85.257 70.787h3.389v.68a.313.313 0 0 1 -.085.229.37.37 0 0 1 -.269.085h-3.035v5.319h-1.127v-5.318h-8.73a.468.468 0 0 1 -.3-.085.429.429 0 0 1 -.144-.229l-.118-.616 9.307-12.3h1.114zm-1.126-9.7c0-.149 0-.3.013-.472s.027-.336.053-.51l-8 10.682h7.933z" fill="#3e2945" transform="translate(-37.961 -29.441)"/><path d="m85.637 83.426a.764.764 0 0 1 -.315.386.831.831 0 0 1 -.432.124h-.511l12.544-29.467a.708.708 0 0 1 .707-.484h.536z" fill="#3e2945" transform="translate(-35.275 -30.725)"/><path d="m107.456 58.567v.563a1.487 1.487 0 0 1 -.045.387 1.28 1.28 0 0 1 -.113.281l-8.498 16.822a.94.94 0 0 1 -.282.34.754.754 0 0 1 -.464.132h-.852l8.548-16.757a2.95 2.95 0 0 1 .406-.614h-10.677a.321.321 0 0 1 -.242-.105.354.354 0 0 1 -.1-.25v-.8z" fill="#3e2945" transform="translate(-32.247 -29.436)"/><path d="m94.34 232.026a14.089 14.089 0 1 1 14.089-14.089 14.1 14.1 0 0 1 -14.089 14.089zm0-27.03a12.941 12.941 0 1 0 12.941 12.941 12.956 12.956 0 0 0 -12.941-12.937z" fill="#44acbe" transform="translate(-36.436 11.45)"/><path d="m94.34 257.224a14.089 14.089 0 1 1 14.089-14.089 14.1 14.1 0 0 1 -14.089 14.089zm0-27.03a12.942 12.942 0 1 0 12.941 12.941 12.957 12.957 0 0 0 -12.941-12.941z" fill="#44acbe" transform="translate(-36.436 18.542)"/><path d="m84.39 215.989 8.891 7.891a1.471 1.471 0 0 0 2.037 0c7.123-6.958 14.128-14.037 21.251-20.995 1.329-1.3-.71-3.337-2.039-2.039-7.123 6.958-14.128 14.037-21.25 20.995h2.037l-8.889-7.891c-1.384-1.229-3.43.8-2.039 2.039z" fill="#44acbe" transform="translate(-35.402 10.489)"/><path d="m234.938 80.383a.641.641 0 0 1 -.641-.641v-11.919a.641.641 0 1 1 1.281 0v11.92a.64.64 0 0 1 -.64.64z" fill="#44acbe" transform="translate(6.916 -27.011)"/><path d="m242.208 73.114h-11.921a.641.641 0 0 1 0-1.281h11.921a.641.641 0 0 1 0 1.281z" fill="#44acbe" transform="translate(5.607 -25.702)"/><path d="m138.223 55.328a.641.641 0 0 1 -.641-.641v-11.921a.641.641 0 0 1 1.281 0v11.921a.64.64 0 0 1 -.64.641z" fill="#44acbe" transform="translate(-20.302 -34.062)"/><path d="m145.493 48.057h-11.92a.641.641 0 0 1 0-1.281h11.92a.641.641 0 1 1 0 1.281z" fill="#44acbe" transform="translate(-21.611 -32.753)"/><path d="m118.364 240.905a.639.639 0 0 1 -.641-.641v-11.92a.641.641 0 1 1 1.281 0v11.92a.64.64 0 0 1 -.64.641z" fill="#44acbe" transform="translate(-25.891 18.164)"/><path d="m125.632 233.636h-11.92a.641.641 0 0 1 0-1.281h11.92a.641.641 0 0 1 0 1.281z" fill="#44acbe" transform="translate(-27.2 19.473)"/><path d="m225.347 68.944a4.473 4.473 0 1 1 4.472-4.473 4.478 4.478 0 0 1 -4.472 4.473zm0-7.665a3.192 3.192 0 1 0 3.191 3.192 3.195 3.195 0 0 0 -3.191-3.193z" fill="#f4586f" transform="translate(3.138 -29.033)"/><path d="m146.713 85.7a4.473 4.473 0 1 1 4.475-4.472 4.478 4.478 0 0 1 -4.475 4.472zm0-7.665a3.192 3.192 0 1 0 3.193 3.193 3.2 3.2 0 0 0 -3.193-3.192z" fill="#f4586f" transform="translate(-18.991 -24.317)"/><path d="m59.438 187.752a4.473 4.473 0 1 1 4.473-4.473 4.478 4.478 0 0 1 -4.473 4.473zm0-7.664a3.191 3.191 0 1 0 3.192 3.191 3.2 3.2 0 0 0 -3.192-3.192z" fill="#fcda70" transform="translate(-43.553 4.403)"/><path d="m249.065 73.626a2.557 2.557 0 1 1 2.558-2.558 2.56 2.56 0 0 1 -2.558 2.558zm0-3.833a1.276 1.276 0 1 0 1.276 1.275 1.277 1.277 0 0 0 -1.276-1.275z" fill="#fcda70" transform="translate(10.353 -26.636)"/><path d="m437.286 220.108a.641.641 0 0 1 -.641-.641v-11.921a.641.641 0 1 1 1.281 0v11.921a.64.64 0 0 1 -.64.641z" fill="#44acbe" transform="translate(63.862 12.311)"/><path d="m444.555 212.837h-11.92a.641.641 0 0 1 0-1.281h11.92a.641.641 0 0 1 0 1.281z" fill="#44acbe" transform="translate(62.553 13.62)"/><path d="m448.56 226.357a4.473 4.473 0 1 1 4.472-4.473 4.478 4.478 0 0 1 -4.472 4.473zm0-7.664a3.191 3.191 0 1 0 3.191 3.191 3.195 3.195 0 0 0 -3.191-3.192z" fill="#44acbe" transform="translate(65.956 15.268)"/><path d="m424 217a2.557 2.557 0 1 1 2.559-2.556 2.559 2.559 0 0 1 -2.559 2.556zm0-3.833a1.276 1.276 0 1 0 1.278 1.276 1.278 1.278 0 0 0 -1.278-1.276z" fill="#44acbe" transform="translate(59.583 13.713)"/><path d="m232.894 201.1a22.846 22.846 0 0 1 -9.776 2.813c-.675.041-8.612-.409-8.525-1.052.085-.613 8.9-4.358 9.74-4.936 2.362-1.617 7.064-4.613 8.022-7.318 1.1-3.092.182-7.745.21-11.039q.075-8.832.147-17.664c.047-6.425.255-12.231 5.105-17.045 3.994-3.965 8.966-4.927 14.3-4.985 20.637-.224 41.289 0 61.927 0 10.872 0 23.257.358 25.986 13.919 1.832 9.107.3 19.747.3 28.963 0 3.878.132 7.778 0 11.653-.333 9.832-7.22 17.176-17.17 17.613-8.013.352-16.12 0-24.138 0h-29.222c-12.653 0-29.66 3.07-36.117-10.714-.314-.671-1.308-.086-1 .583 5.988 12.782 18.877 11.284 30.763 11.284h23.667c11.326 0 22.656.077 33.982 0 11.041-.076 19.916-6.715 20.382-18.338.416-10.36 0-20.818 0-31.187 0-10.755-2.118-22.164-14.765-24.589-7.113-1.363-15.168-.34-22.342-.34h-38.976c-8.465 0-19.423-1.729-26.6 3.746-8.68 6.619-7.213 17.277-7.294 27-.051 6.061 1.557 14.93-.7 20.528-2.509 6.239-12.326 10.437-18.323 12.247a.582.582 0 0 0 0 1.112c7.091 2.439 14.33 2.369 21-1.256.652-.353.07-1.349-.583-.998z" fill="#f4586f" transform="translate(.66 -6.981)"/><path d="m310.166 153.883h-65.524a.641.641 0 1 1 0-1.281h65.524a.641.641 0 0 1 0 1.281z" fill="#f4586f" transform="translate(9.646 -2.971)"/><path d="m306.352 160.01h-48.157a.641.641 0 1 1 0-1.281h48.157a.641.641 0 0 1 0 1.281z" fill="#f4586f" transform="translate(13.46 -1.247)"/><path d="m310.491 166.137h-67a.641.641 0 1 1 0-1.281h67a.641.641 0 1 1 0 1.281z" fill="#f4586f" transform="translate(9.321 .477)"/><path d="m288.319 172.5h-44.832a.641.641 0 1 1 0-1.281h44.832a.641.641 0 1 1 0 1.281z" fill="#f4586f" transform="translate(9.321 2.268)"/><path d="m293.359 181.649h-37.959a.641.641 0 1 1 0-1.281h37.963a.641.641 0 1 1 0 1.281z" fill="#f4586f" transform="translate(12.673 4.843)"/></svg>